<svg><metadata>Created by FontForge 20120731 at Wed May 18 15:45:32 2016 By ,,, Copyright (c) 2013 by atipo. All rights reserved.</metadata><defs><font id="Geomanist-Bold" horiz-adv-x="263"><font-face x-height="525" ascent="750" bbox="-52 -318 1205 1017" cap-height="700" descent="-250" font-family="Geomanist Bold" font-stretch="normal" font-weight="700" panose-1="2 0 5 3 0 0 0 2 0 4" underline-position="-50" underline-thickness="50" unicode-range="U+0020-F6C3" units-per-em="1000"/><glyph d="M130 -13q-41 0 -70 29t-29 70t29 70.5t70 29.5t70.5 -29.5t29.5 -70.5t-29.5 -70t-70.5 -29zM408 -13q-41 0 -70 29t-29 70t29 70.5t70 29.5t70.5 -29.5t29.5 -70.5t-29.5 -70t-70.5 -29zM686 -13q-41 0 -70 29t-29 70t29 70.5t70 29.5t70.5 -29.5t29.5 -70.5t-29.5 -70 t-70.5 -29z" glyph-name="ellipsis" horiz-adv-x="817" unicode="..."/><glyph d="M4 0v700h500v-700h-500zM254 395l170 255h-340zM284 350l170 -255v510zM54 95l170 255l-170 255v-510zM84 50h340l-170 255z" glyph-name=".notdef" horiz-adv-x="509"/><glyph glyph-name=".null" horiz-adv-x="0"/><glyph glyph-name="nonmarkingreturn" horiz-adv-x="333"/><glyph glyph-name="space" horiz-adv-x="196"/><glyph d="M154 -13q-41 0 -70 29t-29 70t29 70.5t70 29.5t70.5 -29.5t29.5 -70.5t-29.5 -70t-70.5 -29zM243 700l-13 -489h-151l-13 489h177z" glyph-name="exclam" horiz-adv-x="309" unicode="!"/><glyph d="M41 700h133l-5 -257h-123zM234 700h133l-5 -257h-123z" glyph-name="quotedbl" horiz-adv-x="407" unicode="&quot;"/><glyph d="M592 700l-36 -172h85l-25 -124h-86l-22 -109h85l-25 -124h-86l-35 -171h-138l35 171h-94l-35 -171h-138l35 171h-88l25 124h89l22 109h-88l25 124h89l36 172h138l-36 -172h94l36 172h138zM298 404l-22 -109h94l22 109h-94z" glyph-name="numbersign" horiz-adv-x="665" unicode="#"/><glyph d="M221 -86v75q-47 5 -85 24.5t-61.5 46t-37 49.5t-20.5 45l143 71q15 -33 43 -55.5t62 -22.5q62 0 62 49q0 21 -21.5 39.5t-53.5 32t-70 34t-70 44.5t-53.5 65t-21.5 94q0 83 49.5 137.5t134.5 66.5v57h99v-58q73 -15 114.5 -61t58.5 -96l-142 -65q-9 20 -17.5 32.5 t-27 24.5t-43.5 12t-40 -13.5t-15 -33.5q0 -26 30 -46.5t73 -39t86 -42.5t73 -68t30 -103q0 -83 -48 -141t-132 -75v-79h-99z" glyph-name="dollar" horiz-adv-x="529" unicode="$"/><glyph d="M758 700l-528 -700h-160l528 700h160zM572 160q0 -24 15.5 -40t38.5 -16q25 0 40 16t15 40q0 23 -15.5 38.5t-39.5 15.5t-39 -16t-15 -38zM448 159q0 73 50.5 123t126.5 50q78 0 129 -50t51 -123t-51 -122.5t-128 -49.5q-78 0 -128 49t-50 123zM146 541q0 -24 15.5 -40 t38.5 -16q25 0 40 16t15 40q0 23 -15.5 38.5t-39.5 15.5t-39 -16t-15 -38zM22 540q0 73 50.5 123t126.5 50q78 0 129 -50t51 -123t-51 -122.5t-128 -49.5q-78 0 -128 49t-50 123z" glyph-name="percent" horiz-adv-x="828" unicode="%"/><glyph d="M540 -26l-68 72q-74 -59 -183 -59q-125 0 -196 60.5t-71 157.5q0 64 28.5 111t85.5 88q-48 64 -48 125q0 81 57.5 132.5t152.5 51.5q101 0 157.5 -52.5t56.5 -135.5q0 -108 -114 -182l72 -70q11 25 11 63h155q0 -104 -53 -184l68 -74zM292 137q48 0 72 26l-130 133 q-43 -24 -43 -76q0 -40 30 -61.5t71 -21.5zM240 520q0 -41 61 -90q63 43 63 90q0 26 -17 43t-46 17q-26 0 -43.5 -17t-17.5 -43z" glyph-name="ampersand" horiz-adv-x="669" unicode="&amp;"/><glyph d="M41 700h133l-5 -257h-123z" glyph-name="quotesingle" horiz-adv-x="215" unicode="'"/><glyph d="M35 56v532q0 111 62.5 171t190.5 60v-144q-88 0 -88 -84v-538q0 -84 88 -84v-144q-253 0 -253 231z" glyph-name="parenleft" horiz-adv-x="350" unicode="("/><glyph d="M315 588v-532q0 -231 -253 -231v144q88 0 88 84v538q0 84 -88 84v144q128 0 190.5 -60t62.5 -171z" glyph-name="parenright" horiz-adv-x="350" unicode=")"/><glyph d="M29 559l55 93l79 -43v91h110v-91l79 43l54 -93l-78 -43l79 -42l-55 -94l-79 44v-92h-110v92l-79 -44l-55 93l79 43z" glyph-name="asterisk" horiz-adv-x="437" unicode="*"/><glyph d="M35 246v132h171v182h139v-182h171v-132h-171v-183h-139v183h-171z" glyph-name="plus" horiz-adv-x="551" unicode="+"/><glyph d="M39 -97q23 13 45 37t26 49q-37 9 -58 36.5t-21 60.5q0 41 29 70.5t70 29.5q43 0 72.5 -28.5t29.5 -79.5q0 -75 -34.5 -141t-93.5 -106z" glyph-name="comma" horiz-adv-x="261" unicode=","/><glyph d="M47 231v150h290v-150h-290z" glyph-name="hyphen" horiz-adv-x="385" unicode="-"/><glyph d="M130 -13q-41 0 -70 29t-29 70t29 70.5t70 29.5t70.5 -29.5t29.5 -70.5t-29.5 -70t-70.5 -29z" glyph-name="period" horiz-adv-x="261" unicode="."/><glyph d="M455 750l-299 -858h-145l299 858h145z" glyph-name="slash" horiz-adv-x="466" unicode="/"/><glyph d="M542 350q0 -185 -59.5 -274t-189.5 -89t-189.5 89t-59.5 274t59.5 274t189.5 89t189.5 -89t59.5 -274zM217 350q0 -111 15.5 -157t60.5 -46t60.5 46t15.5 157t-15.5 157t-60.5 46t-60.5 -46t-15.5 -157z" glyph-name="zero" horiz-adv-x="587" unicode="0"/><glyph d="M291 700v-700h-169v533l-68 -21l-40 142l137 46h140z" glyph-name="one" horiz-adv-x="356" unicode="1"/><glyph d="M520 0h-479v61q0 56 30.5 111t74.5 98t88 81t74.5 74.5t30.5 64.5q0 31 -19 48.5t-52 17.5q-62 0 -84 -69l-148 44q8 32 23.5 61t43 58t72 46t100.5 17q105 0 171.5 -58t66.5 -158q0 -50 -24.5 -95t-61 -78.5t-73.5 -62.5t-68.5 -58t-40.5 -54h275v-149z" glyph-name="two" horiz-adv-x="557" unicode="2"/><glyph d="M272 -13q-56 0 -100.5 17t-72 46t-43 58t-23.5 61l148 44q22 -69 87 -69q35 0 56 20.5t21 54.5q0 31 -21.5 51.5t-60.5 20.5h-97v131l125 129h-229v149h425v-148l-127 -121q158 -32 158 -205q0 -106 -69.5 -172.5t-176.5 -66.5z" glyph-name="three" horiz-adv-x="549" unicode="3"/><glyph d="M576 156h-78v-156h-167v156h-306v121l272 423h201v-400h78v-144zM331 517l-132 -217h132v217z" glyph-name="four" horiz-adv-x="602" unicode="4"/><glyph d="M263 320q-44 0 -68 -32l-140 22l14 390h414v-149h-262l-5 -105q38 18 90 18q89 0 155.5 -60t66.5 -158q0 -113 -70.5 -186t-177.5 -73t-168.5 56t-78.5 126l148 44q18 -69 90 -69q36 0 60 24.5t24 63.5q0 34 -23 61t-69 27z" glyph-name="five" horiz-adv-x="551" unicode="5"/><glyph d="M503 669l-65 -139q-39 23 -91 23q-38 0 -65.5 -12.5t-40 -32t-17.5 -35.5t-5 -29q40 29 109 29q91 0 148.5 -61t57.5 -174q0 -110 -67.5 -180.5t-175.5 -70.5q-141 0 -198 83.5t-57 240.5q0 64 8 119t29.5 108.5t54 91t86 60.5t121.5 23q96 0 168 -44zM288 321 q-42 0 -79 -35q0 -33 2 -53t10 -42.5t25.5 -33t45.5 -10.5q36 0 55 23t19 62q0 40 -20.5 64.5t-57.5 24.5z" glyph-name="six" horiz-adv-x="570" unicode="6"/><glyph d="M501 580l-220 -580h-185l215 551h-288v149h478v-120z" glyph-name="seven" horiz-adv-x="524" unicode="7"/><glyph d="M285 -13q-117 0 -185 60t-68 164q0 54 24.5 96t60.5 64q-28 21 -48 56.5t-20 81.5q0 89 64.5 146.5t172.5 57.5t172.5 -57.5t64.5 -146.5t-69 -138q38 -23 62 -64t24 -96q0 -103 -69.5 -163.5t-185.5 -60.5zM286 287q-37 0 -58.5 -21t-21.5 -52q0 -32 21 -52t59 -20 q39 0 59.5 19.5t20.5 52.5q0 31 -21 52t-59 21zM286 560q-33 0 -50.5 -17.5t-17.5 -44.5q0 -30 18.5 -46.5t49.5 -16.5t49.5 16.5t18.5 46.5q0 27 -18 44.5t-50 17.5z" glyph-name="eight" horiz-adv-x="572" unicode="8"/><glyph d="M67 31l65 139q39 -23 91 -23q38 0 65.5 12.5t40 32t17.5 35.5t5 29q-40 -29 -109 -29q-91 0 -148.5 61t-57.5 174q0 110 67.5 180.5t175.5 70.5q141 0 198 -83.5t57 -240.5q0 -64 -8 -119t-29.5 -108.5t-54 -91t-86 -60.5t-121.5 -23q-96 0 -168 44zM282 379q42 0 79 35 q0 33 -2 53t-10 42.5t-25.5 33t-45.5 10.5q-36 0 -55 -23t-19 -62q0 -40 20.5 -64.5t57.5 -24.5z" glyph-name="nine" horiz-adv-x="570" unicode="9"/><glyph d="M130 -13q-41 0 -70 29t-29 70t29 70.5t70 29.5t70.5 -29.5t29.5 -70.5t-29.5 -70t-70.5 -29zM130 326q-41 0 -70 29t-29 70t29 70.5t70 29.5t70.5 -29.5t29.5 -70.5t-29.5 -70t-70.5 -29z" glyph-name="colon" horiz-adv-x="261" unicode=":"/><glyph d="M130 326q-41 0 -70 29t-29 70t29 70.5t70 29.5t70.5 -29.5t29.5 -70.5t-29.5 -70t-70.5 -29zM39 -97q23 13 45 37t26 49q-37 9 -58 36.5t-21 60.5q0 41 29 70.5t70 29.5q43 0 72.5 -28.5t29.5 -79.5q0 -75 -34.5 -141t-93.5 -106z" glyph-name="semicolon" horiz-adv-x="261" unicode=";"/><glyph d="M46 253v119l424 190v-143l-269 -106l269 -106v-144z" glyph-name="less" horiz-adv-x="516" unicode="&lt;"/><glyph d="M35 342v132h481v-132h-481zM35 141v132h481v-132h-481z" glyph-name="equal" horiz-adv-x="551" unicode="="/><glyph d="M470 372v-119l-424 -190v144l269 106l-269 106v143z" glyph-name="greater" horiz-adv-x="516" unicode="&gt;"/><glyph d="M305 250v-39h-162v50q0 37 16 69t38 53t44.5 40t38.5 40t16 42q0 25 -17 42.5t-49 17.5q-17 0 -30 -5.5t-22 -16t-13.5 -17t-9.5 -18.5l-131 59q8 25 22.5 47.5t39 46.5t65 38t90.5 14q99 0 162 -54.5t63 -142.5q0 -40 -16.5 -73.5t-40 -56.5t-47.5 -43.5t-40.5 -44 t-16.5 -48.5zM223 -13q-41 0 -70 29t-29 70t29 70.5t70 29.5t70.5 -29.5t29.5 -70.5t-29.5 -70t-70.5 -29z" glyph-name="question" horiz-adv-x="490" unicode="?"/><glyph d="M563 126q-43 -64 -124 -64q-85 0 -136 55t-51 142q0 85 51 141t131 56q54 0 94 -31v25h122v-228q0 -54 45 -54q31 0 48.5 36t17.5 100q0 132 -78 199.5t-220 67.5q-138 0 -222 -86.5t-84 -220.5q0 -139 86.5 -221t233.5 -82q102 0 190 52l54 -86q-102 -72 -244 -72 q-199 0 -321 112t-122 293q0 184 123.5 300t307.5 116q190 0 301.5 -101.5t111.5 -264.5q0 -113 -52 -180t-141 -67q-87 0 -122 63zM383 260q0 -36 20.5 -60t53.5 -24q32 0 53 23t21 61q0 33 -20.5 57.5t-53.5 24.5q-32 0 -53 -23t-21 -59z" glyph-name="at" horiz-adv-x="912" unicode="@"/><glyph d="M448 157h-220l-50 -157h-172l242 700h180l242 -700h-172zM404 297l-66 222l-66 -222h132z" glyph-name="A" horiz-adv-x="676" unicode="A"/><glyph d="M561 209q0 -102 -67.5 -155.5t-173.5 -53.5h-258v700h250q107 0 167 -49t60 -139q0 -46 -20.5 -85.5t-55.5 -59.5q98 -41 98 -158zM316 290h-84v-143h83q33 0 51.5 20.5t18.5 51.5q0 32 -18 51.5t-51 19.5zM303 554h-71v-127h73q29 0 44.5 18t15.5 47t-15.5 45.5 t-46.5 16.5z" glyph-name="B" horiz-adv-x="587" unicode="B"/><glyph d="M397 -13q-167 0 -268.5 103.5t-101.5 260.5q0 155 104 258.5t266 103.5q117 0 204 -59l-48 -150q-73 49 -150 49q-92 0 -145 -58t-53 -144t53 -145t145 -59q80 0 153 49l48 -150q-87 -59 -207 -59z" glyph-name="C" horiz-adv-x="630" unicode="C"/><glyph d="M62 700h206q170 0 269.5 -93.5t99.5 -256.5t-99.5 -256.5t-269.5 -93.5h-206v700zM268 552h-35v-404h35q88 0 139.5 52t51.5 150t-51.5 150t-139.5 52z" glyph-name="D" horiz-adv-x="664" unicode="D"/><glyph d="M443 0h-381v700h373v-153h-202v-117h172v-152h-172v-125h210v-153z" glyph-name="E" horiz-adv-x="485" unicode="E"/><glyph d="M407 267h-174v-267h-171v700h370v-153h-199v-128h174v-152z" glyph-name="F" horiz-adv-x="472" unicode="F"/><glyph d="M710 393v-296q-68 -53 -139.5 -81.5t-180.5 -28.5q-153 0 -257.5 100.5t-104.5 264.5q0 153 102.5 257t263.5 104q187 0 285 -122l-108 -112q-18 24 -63 50t-106 26q-91 0 -144 -56.5t-53 -143.5q0 -95 56 -152.5t141 -57.5q57 0 96 14.5t53 28.5v62h-121v143h280z" glyph-name="G" horiz-adv-x="753" unicode="G"/><glyph d="M654 700v-700h-171v274h-250v-274h-171v700h171v-272h250v272h171z" glyph-name="H" horiz-adv-x="716" unicode="H"/><glyph d="M233 700v-700h-171v700h171z" glyph-name="I" horiz-adv-x="295" unicode="I"/><glyph d="M327 700v-518q0 -99 -59 -143.5t-153 -44.5q-50 0 -96 11l20 151q27 -5 54 -5q31 0 47 17.5t16 45.5v486h171z" glyph-name="J" horiz-adv-x="389" unicode="J"/><glyph d="M233 700v-270l204 270h191l-262 -335l267 -365h-196l-204 282v-282h-171v700h171z" glyph-name="K" horiz-adv-x="640" unicode="K"/><glyph d="M443 0h-381v700h171v-547h210v-153z" glyph-name="L" horiz-adv-x="458" unicode="L"/><glyph d="M535 57h-157l-154 402v-459h-164v700h222l174 -443l175 443h222v-700h-164v459z" glyph-name="M" horiz-adv-x="913" unicode="M"/><glyph d="M488 0l-260 429v-429h-168v700h174l256 -434v434h168v-700h-170z" glyph-name="N" horiz-adv-x="718" unicode="N"/><glyph d="M394 -13q-163 0 -265 103.5t-102 260.5q0 155 102 258.5t265 103.5t265 -103.5t102 -258.5q0 -157 -102 -260.5t-265 -103.5zM394 553q-83 0 -136 -57.5t-53 -144.5q0 -89 53 -146.5t136 -57.5t136 57.5t53 146.5q0 87 -53 144.5t-136 57.5z" glyph-name="O" horiz-adv-x="788" unicode="O"/><glyph d="M540 474q0 -102 -61.5 -165.5t-163.5 -63.5h-82v-245h-171v700h252q106 0 166 -61t60 -165zM291 553h-58v-161h56q37 0 56.5 22.5t19.5 59.5q0 36 -19.5 57.5t-54.5 21.5z" glyph-name="P" horiz-adv-x="559" unicode="P"/><glyph d="M394 -13q-163 0 -265 103.5t-102 260.5q0 155 102 258.5t265 103.5t265 -103.5t102 -258.5q0 -108 -52 -196l62 -54l-101 -117l-68 60q-90 -57 -208 -57zM394 553q-83 0 -136 -57.5t-53 -144.5q0 -89 53 -146.5t136 -57.5q42 0 75 15l-58 51l99 116l61 -53q12 39 12 75 q0 87 -53 144.5t-136 57.5z" glyph-name="Q" horiz-adv-x="788" unicode="Q"/><glyph d="M535 485q0 -60 -25 -109.5t-72 -75.5l161 -300h-189l-125 259h-52v-259h-171v700h228q245 0 245 -215zM276 553h-43v-151h51q35 0 55.5 20.5t20.5 56.5q0 74 -84 74z" glyph-name="R" horiz-adv-x="605" unicode="R"/><glyph d="M267 713q53 0 95.5 -17t68 -45t40 -51.5t22.5 -48.5l-142 -65q-9 20 -17.5 32.5t-27 24.5t-43.5 12t-40 -13.5t-15 -33.5q0 -26 30 -46.5t73 -39t86 -42.5t73 -68t30 -103q0 -99 -66 -160.5t-179 -61.5q-55 0 -100 18t-72 46.5t-42.5 53.5t-23.5 49l143 71 q15 -33 43 -55.5t62 -22.5q62 0 62 49q0 21 -21.5 39.5t-53.5 32t-70 34t-70 44.5t-53.5 65t-21.5 94q0 94 63 151t167 57z" glyph-name="S" horiz-adv-x="529" unicode="S"/><glyph d="M492 547h-151v-547h-171v547h-151v153h473v-153z" glyph-name="T" horiz-adv-x="511" unicode="T"/><glyph d="M352 -12q-138 0 -215 76.5t-77 204.5v431h171v-431q0 -57 32.5 -90t89.5 -33t88.5 33t31.5 91v430h171v-430q0 -126 -78 -204t-214 -78z" glyph-name="U" horiz-adv-x="704" unicode="U"/><glyph d="M444 0h-186l-253 700h188l158 -498l158 498h188z" glyph-name="V" horiz-adv-x="702" unicode="V"/><glyph d="M610 0l-113 440l-113 -440h-194l-182 700h183l106 -493l123 493h154l123 -493l106 493h183l-182 -700h-194z" glyph-name="W" horiz-adv-x="994" unicode="W"/><glyph d="M208 700l118 -214l118 214h201l-219 -347l222 -353h-190l-132 225l-132 -225h-190l222 353l-219 347h201z" glyph-name="X" horiz-adv-x="656" unicode="X"/><glyph d="M390 0h-170v316l-214 384h192l107 -229l110 229h189l-214 -384v-316z" glyph-name="Y" horiz-adv-x="610" unicode="Y"/><glyph d="M574 0h-543v109l310 440h-302v151h532v-108l-313 -441h316v-151z" glyph-name="Z" horiz-adv-x="608" unicode="Z"/><glyph d="M35 -175v994h253v-144h-88v-706h88v-144h-253z" glyph-name="bracketleft" horiz-adv-x="350" unicode="["/><glyph d="M310 -108l-299 858h145l299 -858h-145z" glyph-name="backslash" horiz-adv-x="466" unicode="\"/><glyph d="M315 819v-994h-253v144h88v706h-88v144h253z" glyph-name="bracketright" horiz-adv-x="350" unicode="]"/><glyph d="M355 700l183 -382h-154l-97 224l-97 -224h-154l184 382h135z" glyph-name="asciicircum" horiz-adv-x="575" unicode="^"/><glyph d="M20 -158v129h578v-129h-578z" glyph-name="underscore" horiz-adv-x="618" unicode="_"/><glyph d="M121 725h173l66 -145h-139z" glyph-name="grave" horiz-adv-x="480" unicode="`"/><glyph d="M20 163q0 79 55.5 126.5t148.5 47.5q56 0 101 -19v19q0 25 -20.5 41t-59.5 16q-64 0 -132 -33l-62 112q98 65 214 65q127 0 177 -56.5t50 -156.5v-325h-149l-9 29q-42 -42 -119 -42q-82 0 -138.5 47t-56.5 129zM187 169q0 -25 20 -39.5t51 -14.5t50.5 14t19.5 40t-20 41 t-51 15q-30 0 -50 -15.5t-20 -40.5z" glyph-name="a" horiz-adv-x="534" unicode="a"/><glyph d="M210 261q0 -55 30.5 -91.5t82.5 -36.5q51 0 82 35t31 93t-31 94t-82 36t-82 -34.5t-31 -95.5zM204 41v-41h-156v723h167v-238q14 17 51 35t89 18q113 0 180.5 -76.5t67.5 -199.5q0 -121 -72 -198t-185 -77q-51 0 -88.5 18t-53.5 36z" glyph-name="b" horiz-adv-x="625" unicode="b"/><glyph d="M317 134q54 0 99 37l44 -137q-69 -47 -154 -47q-125 0 -205 77t-80 198q0 120 81 198t203 78q88 0 156 -48l-45 -141q-47 39 -105 39q-57 0 -90 -35.5t-33 -89.5q0 -58 35.5 -93.5t93.5 -35.5z" glyph-name="c" horiz-adv-x="479" unicode="c"/><glyph d="M415 261q0 61 -31 95.5t-82 34.5t-82 -36t-31 -94t31 -93t82 -35q52 0 82.5 36.5t30.5 91.5zM421 0v41q-16 -18 -53.5 -36t-88.5 -18q-113 0 -185 77t-72 198q0 123 67.5 199.5t180.5 76.5q52 0 89 -18t51 -35v238h167v-723h-156z" glyph-name="d" horiz-adv-x="625" unicode="d"/><glyph d="M537 219h-344q3 -36 34.5 -61.5t76.5 -25.5q41 0 69.5 18.5t40.5 37.5l110 -85q-18 -37 -76 -76.5t-147 -39.5q-127 0 -203 77.5t-76 196.5q0 118 72 197.5t186 79.5q124 0 191 -75.5t67 -210.5q0 -21 -1 -33zM283 403q-38 0 -60 -23.5t-25 -54.5h170q-2 33 -24.5 55.5 t-60.5 22.5z" glyph-name="e" horiz-adv-x="557" unicode="e"/><glyph d="M242 536v-11h82v-135h-82v-390h-167v390h-55v135h55v15q0 97 58 141t150 44q13 0 51 -2v-140q-12 2 -27 2q-65 0 -65 -49z" glyph-name="f" horiz-adv-x="342" unicode="f"/><glyph d="M409 27v13q-14 -17 -51 -35t-89 -18q-113 0 -180.5 76.5t-67.5 199.5q0 121 72 198t185 77q51 0 88.5 -18t53.5 -36v41h156v-462q0 -70 -23 -121t-64.5 -79.5t-91.5 -41.5t-112 -13q-106 0 -194 45l49 128q69 -32 145 -32q124 0 124 78zM414 264q0 54 -31 90.5t-83 36.5 q-51 0 -81.5 -34.5t-30.5 -92.5t31 -94t82 -36t82 34.5t31 95.5z" glyph-name="g" horiz-adv-x="620" unicode="g"/><glyph d="M358 0v313q0 36 -19 55.5t-50 19.5q-34 0 -54 -21.5t-20 -53.5v-313h-167v723h167v-252q18 27 51.5 47t78.5 20q47 0 81.5 -16t53 -39.5t29 -59t13.5 -65t3 -67.5v-291h-167z" glyph-name="h" horiz-adv-x="569" unicode="h"/><glyph d="M215 525v-525h-167v525h167zM130 557q-40 0 -66.5 25.5t-26.5 64.5q0 40 26.5 65.5t66.5 25.5t67 -26t27 -65t-27 -64.5t-67 -25.5z" glyph-name="i" unicode="i"/><glyph d="M215 525v-527q0 -190 -220 -190l-37 3v141q13 -2 24 -2q66 0 66 56v519h167zM130 557q-40 0 -66.5 25.5t-26.5 64.5q0 40 26.5 65.5t66.5 25.5t67 -26t27 -65t-27 -64.5t-67 -25.5z" glyph-name="j" unicode="j"/><glyph d="M544 525l-169 -240l183 -285h-196l-147 245v-245h-167v723h167v-409l142 211h187z" glyph-name="k" horiz-adv-x="559" unicode="k"/><glyph d="M48 0v723h167v-723h-167z" glyph-name="l" unicode="l"/><glyph d="M509 313v-313h-167v313q0 35 -16.5 55t-46.5 20t-47 -19.5t-17 -55.5v-313h-167v525h163v-54q38 67 130 67q91 0 136 -69q54 69 149 69q88 0 133 -51t45 -138v-349h-167v313q0 35 -17 55t-47 20q-29 0 -46.5 -20.5t-17.5 -54.5z" glyph-name="m" horiz-adv-x="848" unicode="m"/><glyph d="M356 0v313q0 36 -19 55.5t-50 19.5q-34 0 -53 -21t-19 -54v-313h-167v525h163v-54q17 27 52 47t80 20q47 0 81.5 -16t53 -39.5t29 -59t13.5 -65t3 -67.5v-291h-167z" glyph-name="n" horiz-adv-x="567" unicode="n"/><glyph d="M21 261q0 119 81.5 198t203.5 79q126 0 207 -77.5t81 -197.5q0 -119 -82 -197.5t-206 -78.5q-125 0 -205 77.5t-80 196.5zM188 261q0 -57 33.5 -92t84.5 -35q52 0 86.5 36.5t34.5 92.5q0 57 -34.5 92.5t-86.5 35.5t-85 -36t-33 -94z" glyph-name="o" horiz-adv-x="615" unicode="o"/><glyph d="M210 264q0 -61 31 -95.5t82 -34.5t82 36t31 94t-31 93t-82 35q-52 0 -82.5 -36.5t-30.5 -91.5zM204 525v-41q16 18 53.5 36t88.5 18q113 0 185 -77t72 -198q0 -123 -67.5 -199.5t-180.5 -76.5q-52 0 -89 18t-51 35v-227h-167v712h156z" glyph-name="p" horiz-adv-x="625" unicode="p"/><glyph d="M415 264q0 55 -30.5 91.5t-82.5 36.5q-51 0 -82 -35t-31 -93t31 -94t82 -36t82 34.5t31 95.5zM421 484v41h156v-712h-167v227q-14 -17 -51 -35t-89 -18q-113 0 -180.5 76.5t-67.5 199.5q0 121 72 198t185 77q51 0 88.5 -18t53.5 -36z" glyph-name="q" horiz-adv-x="625" unicode="q"/><glyph d="M350 538v-170q-14 2 -27 2q-108 0 -108 -138v-232h-167v525h163v-70q41 83 139 83z" glyph-name="r" horiz-adv-x="369" unicode="r"/><glyph d="M216 -13q-69 0 -122 27t-80 63l94 91q52 -46 116 -46q47 0 47 29q0 14 -18 24.5t-44.5 18t-57.5 21t-57.5 31.5t-44.5 51.5t-18 78.5q0 74 57 118t145 44q122 0 188 -90l-108 -85q-41 41 -87 41q-38 0 -38 -26q0 -18 25 -29.5t60.5 -22t71 -26.5t60.5 -51.5t25 -88.5 q0 -79 -61 -126t-153 -47z" glyph-name="s" horiz-adv-x="444" unicode="s"/><glyph d="M229 636v-111h89v-135h-89v-193q0 -57 65 -57q17 0 28 1v-143q-22 -6 -64 -6q-97 0 -146.5 50t-49.5 163v185h-51v135h51v111h167z" glyph-name="t" horiz-adv-x="352" unicode="t"/><glyph d="M211 525v-313q0 -36 19 -55.5t50 -19.5q34 0 53 21t19 54v313h167v-525h-163v54q-17 -27 -52 -47t-80 -20q-47 0 -81.5 16t-53 39.5t-29 59t-13.5 65t-3 67.5v291h167z" glyph-name="u" horiz-adv-x="563" unicode="u"/><glyph d="M182 525l99 -348l99 348h174l-177 -525h-194l-180 525h179z" glyph-name="v" horiz-adv-x="558" unicode="v"/><glyph d="M492 0l-75 297l-75 -297h-188l-147 525h182l71 -343l79 343h156l79 -343l71 343h182l-147 -525h-188z" glyph-name="w" horiz-adv-x="834" unicode="w"/><glyph d="M365 0l-92 141l-92 -141h-179l179 266l-174 259h186l80 -141l80 141h186l-174 -259l179 -266h-179z" glyph-name="x" horiz-adv-x="546" unicode="x"/><glyph d="M549 525l-260 -704h-158l71 196l-196 508h179l93 -302l97 302h174z" glyph-name="y" horiz-adv-x="556" unicode="y"/><glyph d="M441 424l-205 -285h207v-139h-416v100l204 286h-199v139h409v-101z" glyph-name="z" horiz-adv-x="471" unicode="z"/><glyph d="M176 322q25 -5 55.5 -38t30.5 -92v-139q0 -84 88 -84v-144q-128 0 -190.5 60t-62.5 171v104q0 47 -22 65t-50 18v158q28 0 50 18t22 65v104q0 111 62.5 171t190.5 60v-144q-88 0 -88 -84v-139q0 -59 -30.5 -92t-55.5 -38z" glyph-name="braceleft" horiz-adv-x="412" unicode="{"/><glyph d="M227 845v-1095h-157v1095h157z" glyph-name="bar" horiz-adv-x="297" unicode="|"/><glyph d="M236 322q-25 5 -55.5 38t-30.5 92v139q0 84 -88 84v144q128 0 190.5 -60t62.5 -171v-104q0 -47 22 -65t50 -18v-158q-28 0 -50 -18t-22 -65v-104q0 -111 -62.5 -171t-190.5 -60v144q88 0 88 84v139q0 59 30.5 92t55.5 38z" glyph-name="braceright" horiz-adv-x="412" unicode="}"/><glyph d="M362 208q-33 0 -88 21t-75 21q-19 0 -30 -11.5t-11 -31.5h-128q0 88 43 141.5t115 53.5q36 0 88.5 -21t74.5 -21q19 0 30 11.5t11 31.5h128q0 -88 -43 -141.5t-115 -53.5z" glyph-name="asciitilde" horiz-adv-x="551" unicode="~"/><glyph d="M154 560q41 0 70.5 -29t29.5 -70t-29.5 -70.5t-70.5 -29.5t-70 29.5t-29 70.5t29 70t70 29zM230 336l13 -489h-177l13 489h151z" glyph-name="exclamdown" horiz-adv-x="309" unicode="¡"/><glyph d="M259 0v66q-107 14 -172.5 88t-65.5 183q0 108 66.5 183t171.5 89v91h99v-92q57 -11 103 -43l-45 -141q-47 39 -105 39q-57 0 -90 -35.5t-33 -89.5q0 -58 35.5 -93.5t93.5 -35.5q54 0 99 37l44 -137q-45 -31 -102 -42v-67h-99z" glyph-name="cent" horiz-adv-x="479" unicode="¢"/><glyph d="M256 486v-79h149v-126h-149v-132h293v-149h-516v149h54v132h-48v126h48v88q0 97 62.5 157.5t170.5 60.5q91 0 142.5 -48.5t68.5 -106.5l-138 -59q-17 56 -71 56q-30 0 -48 -19t-18 -50z" glyph-name="sterling" horiz-adv-x="582" unicode="£"/><glyph d="M390 0h-170v148h-146v107h146v62h-146v107h86l-154 276h192l107 -229l110 229h189l-154 -276h86v-107h-146v-62h146v-107h-146v-148z" glyph-name="yen" horiz-adv-x="610" unicode="¥"/><glyph d="M495 237q0 -86 -84 -130q76 -62 76 -143q0 -86 -59.5 -139t-159.5 -53q-52 0 -96 17.5t-72 44.5t-44.5 52t-24.5 48l140 61q12 -27 38 -48t59 -21q21 0 34.5 10.5t13.5 29.5t-13.5 33.5t-43.5 32.5l-117 70q-110 65 -110 166q0 86 84 130q-76 62 -76 143q0 86 59.5 139 t159.5 53q52 0 96 -17.5t72 -44.5t44.5 -52t24.5 -48l-140 -61q-12 27 -38 48t-59 21q-21 0 -34.5 -10.5t-13.5 -29.5t13.5 -33.5t43.5 -32.5l117 -70q110 -65 110 -166zM339 234q0 25 -24 38l-77 41q-24 0 -37 -12t-13 -30q0 -25 24 -38l77 -41q24 0 37 12t13 30z" glyph-name="section" horiz-adv-x="528" unicode="§"/><glyph d="M139 576q-34 0 -55.5 22.5t-21.5 54.5t21.5 54.5t55.5 22.5q33 0 55 -22.5t22 -54.5t-22 -54.5t-55 -22.5zM340 576q-34 0 -55.5 22.5t-21.5 54.5t21.5 54.5t55.5 22.5q33 0 55 -22.5t22 -54.5t-22 -54.5t-55 -22.5z" glyph-name="dieresis" horiz-adv-x="480" unicode="¨"/><glyph d="M392 82q113 0 183.5 75.5t70.5 193.5q0 116 -70.5 191t-183.5 75t-183.5 -75t-70.5 -191q0 -118 70.5 -193.5t183.5 -75.5zM213 350q0 82 51.5 137t130.5 55q96 0 147 -79l-87 -68q-22 35 -59 35q-28 0 -44.5 -22t-16.5 -58t16.5 -58t44.5 -22q36 0 59 35l87 -68 q-51 -79 -147 -79q-79 0 -130.5 55t-51.5 137zM392 713q155 0 257.5 -105t102.5 -260q0 -153 -102.5 -257.5t-257.5 -104.5t-257.5 104.5t-102.5 257.5q0 155 102.5 260t257.5 105z" glyph-name="copyright" horiz-adv-x="784" unicode="©"/><glyph d="M29 432q0 59 41.5 94.5t111.5 35.5q42 0 76 -14v14q0 19 -15.5 31t-44.5 12q-49 0 -99 -25l-47 84q74 49 161 49q94 0 132 -42.5t38 -117.5v-243h-112l-7 21q-31 -31 -89 -31q-61 0 -103.5 35t-42.5 97zM154 436q0 -19 15 -29.5t38 -10.5t38 10.5t15 29.5q0 20 -15 31 t-38 11t-38 -11.5t-15 -30.5z" glyph-name="ordfeminine" horiz-adv-x="413" unicode="ª"/><glyph d="M293 106h-147l-121 190l121 190h147l-122 -190zM496 106h-146l-122 190l122 190h146l-122 -190z" glyph-name="guillemotleft" horiz-adv-x="521" unicode="«"/><glyph d="M222 499h-17v-72h-65v216h98q36 0 56 -19.5t20 -51.5q0 -47 -34 -61l40 -84h-67zM228 589h-23v-39h23q19 0 19 20q0 19 -19 19zM14 533q0 89 58.5 149t150.5 60q96 0 155 -59t59 -149q0 -88 -58.5 -148.5t-153.5 -60.5t-153 59t-58 149zM74 533q0 -67 41 -110t110 -43 q70 0 110.5 43t40.5 111t-41 110t-112 42q-67 0 -108 -42.5t-41 -110.5z" glyph-name="registered" horiz-adv-x="452" unicode="®"/><glyph d="M80 591v119h281v-119h-281z" glyph-name="macron" horiz-adv-x="442" unicode="¯"/><glyph d="M195 379q-74 0 -123 48t-49 118t49 119t123 49t123 -49t49 -119t-49 -118t-123 -48zM195 602q-26 0 -41 -16t-15 -40t15 -40t41 -16t41 16t15 40t-15 40t-41 16z" glyph-name="degree" horiz-adv-x="390" unicode="°"/><glyph d="M343 301h-311v51q0 33 18.5 62t45 49t52.5 37.5t44.5 34.5t18.5 32q0 14 -9.5 23t-25.5 9q-32 0 -51 -42l-98 35q11 43 49 79.5t105 36.5t112 -35.5t45 -100.5q0 -34 -21 -63t-47 -44.5t-53 -33t-34 -29.5h160v-101z" glyph-name="twosuperior" horiz-adv-x="370" unicode="²"/><glyph d="M45 700h279v-78l-82 -78q43 -5 69.5 -35.5t26.5 -79.5q0 -65 -45 -100.5t-112 -35.5t-105 36.5t-49 79.5l98 35q19 -42 51 -42q17 0 27 9.5t10 25.5q0 36 -45 36h-49v77l50 50h-124v100z" glyph-name="threesuperior" horiz-adv-x="366" unicode="³"/><glyph d="M186 725h173l-100 -145h-139z" glyph-name="acute" horiz-adv-x="480" unicode="´"/><glyph d="M348 -45h-127v365q-79 1 -133.5 55.5t-54.5 135.5q0 82 54.5 135.5t137.5 53.5h123v-745zM532 700v-745h-127v745h127z" glyph-name="paragraph" horiz-adv-x="566" unicode="¶"/><glyph d="M130 215q-41 0 -70 29t-29 70t29 70.5t70 29.5t70.5 -29.5t29.5 -70.5t-29.5 -70t-70.5 -29z" glyph-name="periodcentered" horiz-adv-x="261" unicode="·"/><glyph d="M182 -237q-32 0 -66 12l20 80q20 -5 34 -5q16 0 26.5 7.5t10.5 20.5q0 26 -45 26l-18 -1l18 110h82l-7 -48q74 -17 74 -95q0 -53 -35.5 -80t-93.5 -27z" glyph-name="cedilla" horiz-adv-x="442" unicode="¸"/><glyph d="M231 700v-399h-123v278l-39 -13l-30 104l90 30h102z" glyph-name="onesuperior" horiz-adv-x="302" unicode="¹"/><glyph d="M29 505q0 90 61 149t153 59q95 0 155 -58t60 -148q0 -89 -61 -148t-154 -59q-94 0 -154 58t-60 147zM155 505q0 -42 24.5 -68t63.5 -26t64.5 27t25.5 69t-26 68.5t-64 26.5q-39 0 -63.5 -27t-24.5 -70z" glyph-name="ordmasculine" horiz-adv-x="487" unicode="º"/><glyph d="M375 106h-147l122 190l-122 190h147l121 -190zM171 106h-146l122 190l-122 190h146l122 -190z" glyph-name="guillemotright" horiz-adv-x="521" unicode="»"/><glyph d="M668 741l-368 -782h-141l367 782h142zM826 70h-45v-70h-119v70h-183v91l169 238h133v-225h45v-104zM662 280l-71 -106h71v106zM231 700v-399h-123v278l-39 -13l-30 104l90 30h102z" glyph-name="onequarter" horiz-adv-x="853" unicode="¼"/><glyph d="M656 741l-368 -782h-141l367 782h142zM231 700v-399h-123v278l-39 -13l-30 104l90 30h102zM826 0h-311v51q0 33 18.5 62t44.5 49t52.5 37.5t45 34.5t18.5 32q0 14 -9.5 23t-25.5 9q-32 0 -51 -42l-98 35q11 43 49 79.5t105 36.5t112 -35.5t45 -100.5q0 -34 -21 -63 t-47 -44.5t-53 -33t-34 -29.5h160v-101z" glyph-name="onehalf" horiz-adv-x="865" unicode="½"/><glyph d="M45 700h279v-78l-82 -78q43 -5 69.5 -35.5t26.5 -79.5q0 -65 -45 -100.5t-112 -35.5t-105 36.5t-49 79.5l98 35q19 -42 51 -42q17 0 27 9.5t10 25.5q0 36 -45 36h-49v77l50 50h-124v100zM710 741l-368 -782h-141l367 782h142zM862 70h-45v-70h-119v70h-183v91l169 238 h133v-225h45v-104zM698 280l-71 -106h71v106z" glyph-name="threequarters" horiz-adv-x="893" unicode="¾"/><glyph d="M185 297v39h162v-50q0 -37 -16 -69t-38.5 -53t-44.5 -40t-38 -40t-16 -42q0 -25 17 -42.5t49 -17.5q17 0 30 5.5t22 16t13.5 17t9.5 18.5l131 -59q-8 -25 -22.5 -47.5t-39 -46.5t-65 -38t-90.5 -14q-99 0 -162 54.5t-63 142.5q0 40 16.5 73.5t40 56.5t47.5 43.5t40.5 44 t16.5 48.5zM267 560q41 0 70 -29t29 -70t-29 -70.5t-70 -29.5t-70.5 29.5t-29.5 70.5t29.5 70t70.5 29z" glyph-name="questiondown" horiz-adv-x="490" unicode="¿"/><glyph d="M448 157h-220l-50 -157h-172l242 700h180l242 -700h-172zM404 297l-66 222l-66 -222h132zM175 880h173l66 -145h-139z" glyph-name="Agrave" horiz-adv-x="676" unicode="À"/><glyph d="M448 157h-220l-50 -157h-172l242 700h180l242 -700h-172zM404 297l-66 222l-66 -222h132zM321 880h173l-100 -145h-139z" glyph-name="Aacute" horiz-adv-x="676" unicode="Á"/><glyph d="M448 157h-220l-50 -157h-172l242 700h180l242 -700h-172zM404 297l-66 222l-66 -222h132zM255 880h168l96 -145h-138l-41 65l-42 -65h-139z" glyph-name="Acircumflex" horiz-adv-x="676" unicode="Â"/><glyph d="M448 157h-220l-50 -157h-172l242 700h180l242 -700h-172zM404 297l-66 222l-66 -222h132zM408 737q-30 0 -70.5 16.5t-53.5 16.5q-30 0 -30 -34h-102q0 66 32.5 107t85.5 41q32 0 71.5 -16.5t51.5 -16.5q29 0 29 34h102q0 -68 -31.5 -108t-84.5 -40z" glyph-name="Atilde" horiz-adv-x="676" unicode="Ã"/><glyph d="M448 157h-220l-50 -157h-172l242 700h180l242 -700h-172zM404 297l-66 222l-66 -222h132zM237 736q-34 0 -55.5 22.5t-21.5 54.5t21.5 54.5t55.5 22.5q33 0 55 -22.5t22 -54.5t-22 -54.5t-55 -22.5zM438 736q-34 0 -55.5 22.5t-21.5 54.5t21.5 54.5t55.5 22.5 q33 0 55 -22.5t22 -54.5t-22 -54.5t-55 -22.5z" glyph-name="Adieresis" horiz-adv-x="676" unicode="Ä"/><glyph d="M448 157h-220l-50 -157h-172l242 700h180l242 -700h-172zM404 297l-66 222l-66 -222h132zM337 728q-49 0 -82 29.5t-33 75.5q0 47 33 76.5t82 29.5q50 0 83 -29.5t33 -75.5q0 -47 -33 -76.5t-83 -29.5zM338 796q16 0 26 10.5t10 27.5q0 16 -10 26.5t-26 10.5t-26 -10 t-10 -27t10 -27.5t26 -10.5z" glyph-name="Aring" horiz-adv-x="676" unicode="Å"/><glyph d="M839 0h-381v157h-185l-79 -157h-186l370 700h453v-153h-202v-117h172v-152h-172v-125h210v-153zM335 297h123v244z" glyph-name="AE" horiz-adv-x="881" unicode="Æ"/><glyph d="M325 -237q-32 0 -66 12l20 80q20 -5 34 -5q16 0 26.5 7.5t10.5 20.5q0 26 -45 26l-18 -1l15 94q-127 27 -201 124t-74 230q0 155 104 258.5t266 103.5q117 0 204 -59l-48 -150q-73 49 -150 49q-92 0 -145 -58t-53 -144t53 -145t145 -59q80 0 153 49l48 -150 q-87 -59 -207 -59l-14 1l-3 -23q74 -17 74 -95q0 -53 -35.5 -80t-93.5 -27z" glyph-name="Ccedilla" horiz-adv-x="630" unicode="Ç"/><glyph d="M443 0h-381v700h373v-153h-202v-117h172v-152h-172v-125h210v-153zM104 880h173l66 -145h-139z" glyph-name="Egrave" horiz-adv-x="485" unicode="È"/><glyph d="M443 0h-381v700h373v-153h-202v-117h172v-152h-172v-125h210v-153zM231 880h173l-100 -145h-139z" glyph-name="Eacute" horiz-adv-x="485" unicode="É"/><glyph d="M443 0h-381v700h373v-153h-202v-117h172v-152h-172v-125h210v-153zM166 880h168l96 -145h-138l-41 65l-42 -65h-139z" glyph-name="Ecircumflex" horiz-adv-x="485" unicode="Ê"/><glyph d="M443 0h-381v700h373v-153h-202v-117h172v-152h-172v-125h210v-153zM147 736q-34 0 -55.5 22.5t-21.5 54.5t21.5 54.5t55.5 22.5q33 0 55 -22.5t22 -54.5t-22 -54.5t-55 -22.5zM348 736q-34 0 -55.5 22.5t-21.5 54.5t21.5 54.5t55.5 22.5q33 0 55 -22.5t22 -54.5 t-22 -54.5t-55 -22.5z" glyph-name="Edieresis" horiz-adv-x="485" unicode="Ë"/><glyph d="M233 700v-700h-171v700h171zM1 880h173l66 -145h-139z" glyph-name="Igrave" horiz-adv-x="295" unicode="Ì"/><glyph d="M233 700v-700h-171v700h171zM131 880h173l-100 -145h-139z" glyph-name="Iacute" horiz-adv-x="295" unicode="Í"/><glyph d="M233 700v-700h-171v700h171zM64 880h168l96 -145h-138l-41 65l-42 -65h-139z" glyph-name="Icircumflex" horiz-adv-x="295" unicode="Î"/><glyph d="M233 700v-700h-171v700h171zM52 736q-34 0 -55.5 22.5t-21.5 54.5t21.5 54.5t55.5 22.5q33 0 55 -22.5t22 -54.5t-22 -54.5t-55 -22.5zM253 736q-34 0 -55.5 22.5t-21.5 54.5t21.5 54.5t55.5 22.5q33 0 55 -22.5t22 -54.5t-22 -54.5t-55 -22.5z" glyph-name="Idieresis" horiz-adv-x="295" unicode="Ï"/><glyph d="M76 700h206q170 0 269.5 -93.5t99.5 -256.5t-99.5 -256.5t-269.5 -93.5h-206v277h-54v149h54v274zM247 552v-126h92v-149h-92v-129h35q88 0 139.5 52t51.5 150t-51.5 150t-139.5 52h-35z" glyph-name="Eth" horiz-adv-x="678" unicode="Ð"/><glyph d="M488 0l-260 429v-429h-168v700h174l256 -434v434h168v-700h-170zM429 737q-30 0 -70.5 16.5t-53.5 16.5q-30 0 -30 -34h-102q0 66 32.5 107t85.5 41q32 0 71.5 -16.5t51.5 -16.5q29 0 29 34h102q0 -68 -31.5 -108t-84.5 -40z" glyph-name="Ntilde" horiz-adv-x="718" unicode="Ñ"/><glyph d="M394 -13q-163 0 -265 103.5t-102 260.5q0 155 102 258.5t265 103.5t265 -103.5t102 -258.5q0 -157 -102 -260.5t-265 -103.5zM394 553q-83 0 -136 -57.5t-53 -144.5q0 -89 53 -146.5t136 -57.5t136 57.5t53 146.5q0 87 -53 144.5t-136 57.5zM237 880h173l66 -145h-139z" glyph-name="Ograve" horiz-adv-x="788" unicode="Ò"/><glyph d="M394 -13q-163 0 -265 103.5t-102 260.5q0 155 102 258.5t265 103.5t265 -103.5t102 -258.5q0 -157 -102 -260.5t-265 -103.5zM394 553q-83 0 -136 -57.5t-53 -144.5q0 -89 53 -146.5t136 -57.5t136 57.5t53 146.5q0 87 -53 144.5t-136 57.5zM378 880h173l-100 -145h-139z" glyph-name="Oacute" horiz-adv-x="788" unicode="Ó"/><glyph d="M394 -13q-163 0 -265 103.5t-102 260.5q0 155 102 258.5t265 103.5t265 -103.5t102 -258.5q0 -157 -102 -260.5t-265 -103.5zM394 553q-83 0 -136 -57.5t-53 -144.5q0 -89 53 -146.5t136 -57.5t136 57.5t53 146.5q0 87 -53 144.5t-136 57.5zM308 880h168l96 -145h-138 l-41 65l-42 -65h-139z" glyph-name="Ocircumflex" horiz-adv-x="788" unicode="Ô"/><glyph d="M394 -13q-163 0 -265 103.5t-102 260.5q0 155 102 258.5t265 103.5t265 -103.5t102 -258.5q0 -157 -102 -260.5t-265 -103.5zM394 553q-83 0 -136 -57.5t-53 -144.5q0 -89 53 -146.5t136 -57.5t136 57.5t53 146.5q0 87 -53 144.5t-136 57.5zM464 737q-30 0 -70.5 16.5 t-53.5 16.5q-30 0 -30 -34h-102q0 66 32.5 107t85.5 41q32 0 71.5 -16.5t51.5 -16.5q29 0 29 34h102q0 -68 -31.5 -108t-84.5 -40z" glyph-name="Otilde" horiz-adv-x="788" unicode="Õ"/><glyph d="M394 -13q-163 0 -265 103.5t-102 260.5q0 155 102 258.5t265 103.5t265 -103.5t102 -258.5q0 -157 -102 -260.5t-265 -103.5zM394 553q-83 0 -136 -57.5t-53 -144.5q0 -89 53 -146.5t136 -57.5t136 57.5t53 146.5q0 87 -53 144.5t-136 57.5zM293 736q-34 0 -55.5 22.5 t-21.5 54.5t21.5 54.5t55.5 22.5q33 0 55 -22.5t22 -54.5t-22 -54.5t-55 -22.5zM494 736q-34 0 -55.5 22.5t-21.5 54.5t21.5 54.5t55.5 22.5q33 0 55 -22.5t22 -54.5t-22 -54.5t-55 -22.5z" glyph-name="Odieresis" horiz-adv-x="788" unicode="Ö"/><glyph d="M27 463l93 93l143 -151l145 151l92 -93l-145 -152l145 -152l-92 -92l-144 150l-144 -151l-93 93l145 152z" glyph-name="multiply" horiz-adv-x="528" unicode="×"/><glyph d="M394 -13q-103 0 -186 44l-46 -57l-88 70l45 56q-92 101 -92 251q0 155 102 258.5t265 103.5q98 0 180 -42l45 56l88 -70l-43 -54q97 -102 97 -252q0 -157 -102 -260.5t-265 -103.5zM394 147q83 0 136 57.5t53 146.5q0 62 -30 113l-239 -300q37 -17 80 -17zM394 553 q-83 0 -136 -57.5t-53 -144.5q0 -63 26 -110l237 297q-33 15 -74 15z" glyph-name="Oslash" horiz-adv-x="788" unicode="Ø"/><glyph d="M352 -12q-138 0 -215 76.5t-77 204.5v431h171v-431q0 -57 32.5 -90t89.5 -33t88.5 33t31.5 91v430h171v-430q0 -126 -78 -204t-214 -78zM195 880h173l66 -145h-139z" glyph-name="Ugrave" horiz-adv-x="704" unicode="Ù"/><glyph d="M352 -12q-138 0 -215 76.5t-77 204.5v431h171v-431q0 -57 32.5 -90t89.5 -33t88.5 33t31.5 91v430h171v-430q0 -126 -78 -204t-214 -78zM340 880h173l-100 -145h-139z" glyph-name="Uacute" horiz-adv-x="704" unicode="Ú"/><glyph d="M352 -12q-138 0 -215 76.5t-77 204.5v431h171v-431q0 -57 32.5 -90t89.5 -33t88.5 33t31.5 91v430h171v-430q0 -126 -78 -204t-214 -78zM268 880h168l96 -145h-138l-41 65l-42 -65h-139z" glyph-name="Ucircumflex" horiz-adv-x="704" unicode="Û"/><glyph d="M352 -12q-138 0 -215 76.5t-77 204.5v431h171v-431q0 -57 32.5 -90t89.5 -33t88.5 33t31.5 91v430h171v-430q0 -126 -78 -204t-214 -78zM254 736q-34 0 -55.5 22.5t-21.5 54.5t21.5 54.5t55.5 22.5q33 0 55 -22.5t22 -54.5t-22 -54.5t-55 -22.5zM455 736 q-34 0 -55.5 22.5t-21.5 54.5t21.5 54.5t55.5 22.5q33 0 55 -22.5t22 -54.5t-22 -54.5t-55 -22.5z" glyph-name="Udieresis" horiz-adv-x="704" unicode="Ü"/><glyph d="M390 0h-170v316l-214 384h192l107 -229l110 229h189l-214 -384v-316zM296 880h173l-100 -145h-139z" glyph-name="Yacute" horiz-adv-x="610" unicode="Ý"/><glyph d="M555 358q0 -104 -62 -167.5t-164 -63.5h-96v-127h-171v700h171v-116h96q106 0 166 -61t60 -165zM306 437h-73v-161h71q37 0 56.5 22t19.5 59t-19.5 58.5t-54.5 21.5z" glyph-name="Thorn" horiz-adv-x="582" unicode="Þ"/><glyph d="M266 725q112 0 173.5 -44.5t61.5 -130.5q0 -38 -17.5 -68.5t-39.5 -43.5q106 -66 106 -196q0 -113 -77.5 -177.5t-212.5 -64.5v134q57 1 90.5 30.5t33.5 79.5q0 49 -33.5 76.5t-90.5 27.5v130q80 0 80 57q0 19 -16.5 34.5t-47.5 15.5q-61 0 -61 -56v-529h-167v540 q0 97 61.5 141t156.5 44z" glyph-name="germandbls" horiz-adv-x="571" unicode="ß"/><glyph d="M20 163q0 79 55.5 126.5t148.5 47.5q56 0 101 -19v19q0 25 -20.5 41t-59.5 16q-64 0 -132 -33l-62 112q98 65 214 65q127 0 177 -56.5t50 -156.5v-325h-149l-9 29q-42 -42 -119 -42q-82 0 -138.5 47t-56.5 129zM187 169q0 -25 20 -39.5t51 -14.5t50.5 14t19.5 40t-20 41 t-51 15q-30 0 -50 -15.5t-20 -40.5zM119 725h173l66 -145h-139z" glyph-name="agrave" horiz-adv-x="534" unicode="à"/><glyph d="M20 163q0 79 55.5 126.5t148.5 47.5q56 0 101 -19v19q0 25 -20.5 41t-59.5 16q-64 0 -132 -33l-62 112q98 65 214 65q127 0 177 -56.5t50 -156.5v-325h-149l-9 29q-42 -42 -119 -42q-82 0 -138.5 47t-56.5 129zM187 169q0 -25 20 -39.5t51 -14.5t50.5 14t19.5 40t-20 41 t-51 15q-30 0 -50 -15.5t-20 -40.5zM255 725h173l-100 -145h-139z" glyph-name="aacute" horiz-adv-x="534" unicode="á"/><glyph d="M20 163q0 79 55.5 126.5t148.5 47.5q56 0 101 -19v19q0 25 -20.5 41t-59.5 16q-64 0 -132 -33l-62 112q98 65 214 65q127 0 177 -56.5t50 -156.5v-325h-149l-9 29q-42 -42 -119 -42q-82 0 -138.5 47t-56.5 129zM187 169q0 -25 20 -39.5t51 -14.5t50.5 14t19.5 40t-20 41 t-51 15q-30 0 -50 -15.5t-20 -40.5zM183 725h168l96 -145h-138l-41 65l-42 -65h-139z" glyph-name="acircumflex" horiz-adv-x="534" unicode="â"/><glyph d="M20 163q0 79 55.5 126.5t148.5 47.5q56 0 101 -19v19q0 25 -20.5 41t-59.5 16q-64 0 -132 -33l-62 112q98 65 214 65q127 0 177 -56.5t50 -156.5v-325h-149l-9 29q-42 -42 -119 -42q-82 0 -138.5 47t-56.5 129zM187 169q0 -25 20 -39.5t51 -14.5t50.5 14t19.5 40t-20 41 t-51 15q-30 0 -50 -15.5t-20 -40.5zM331 580q-30 0 -70.5 16.5t-53.5 16.5q-30 0 -30 -34h-102q0 66 32.5 107t85.5 41q32 0 71.5 -16.5t51.5 -16.5q29 0 29 34h102q0 -68 -31.5 -108t-84.5 -40z" glyph-name="atilde" horiz-adv-x="534" unicode="ã"/><glyph d="M20 163q0 79 55.5 126.5t148.5 47.5q56 0 101 -19v19q0 25 -20.5 41t-59.5 16q-64 0 -132 -33l-62 112q98 65 214 65q127 0 177 -56.5t50 -156.5v-325h-149l-9 29q-42 -42 -119 -42q-82 0 -138.5 47t-56.5 129zM187 169q0 -25 20 -39.5t51 -14.5t50.5 14t19.5 40t-20 41 t-51 15q-30 0 -50 -15.5t-20 -40.5zM170 576q-34 0 -55.5 22.5t-21.5 54.5t21.5 54.5t55.5 22.5q33 0 55 -22.5t22 -54.5t-22 -54.5t-55 -22.5zM371 576q-34 0 -55.5 22.5t-21.5 54.5t21.5 54.5t55.5 22.5q33 0 55 -22.5t22 -54.5t-22 -54.5t-55 -22.5z" glyph-name="adieresis" horiz-adv-x="534" unicode="ä"/><glyph d="M20 163q0 79 55.5 126.5t148.5 47.5q56 0 101 -19v19q0 25 -20.5 41t-59.5 16q-64 0 -132 -33l-62 112q98 65 214 65q127 0 177 -56.5t50 -156.5v-325h-149l-9 29q-42 -42 -119 -42q-82 0 -138.5 47t-56.5 129zM187 169q0 -25 20 -39.5t51 -14.5t50.5 14t19.5 40t-20 41 t-51 15q-30 0 -50 -15.5t-20 -40.5zM274 559q-49 0 -82 29.5t-33 75.5q0 47 33 76.5t82 29.5q50 0 83 -29.5t33 -75.5q0 -47 -33 -76.5t-83 -29.5zM275 627q16 0 26 10.5t10 27.5q0 16 -10 26.5t-26 10.5t-26 -10t-10 -27t10 -27.5t26 -10.5z" glyph-name="aring" horiz-adv-x="534" unicode="å"/><glyph d="M836 219h-344q3 -36 34.5 -61.5t76.5 -25.5q41 0 69.5 18.5t40.5 37.5l110 -85q-18 -37 -76 -76.5t-147 -39.5q-125 0 -202 75q-58 -75 -183 -75q-82 0 -138.5 47t-56.5 129q0 79 55.5 126.5t148.5 47.5q56 0 101 -19v19q0 25 -20.5 41t-59.5 16q-64 0 -132 -33l-62 112 q98 65 214 65q105 0 162 -49q65 49 152 49q124 0 191 -75.5t67 -210.5q0 -21 -1 -33zM187 169q0 -25 20 -39.5t51 -14.5t50.5 14t19.5 40t-20 41t-51 15q-30 0 -50 -15.5t-20 -40.5zM582 403q-38 0 -60 -23.5t-25 -54.5h170q-2 33 -24.5 55.5t-60.5 22.5z" glyph-name="ae" horiz-adv-x="856" unicode="æ"/><glyph d="M249 -237q-32 0 -66 12l20 80q20 -5 34 -5q16 0 26.5 7.5t10.5 20.5q0 26 -45 26l-18 -1l15 94q-93 22 -149 93.5t-56 171.5q0 120 81 198t203 78q88 0 156 -48l-45 -141q-47 39 -105 39q-57 0 -90 -35.5t-33 -89.5q0 -58 35.5 -93.5t93.5 -35.5q54 0 99 37l44 -137 q-69 -47 -153 -47l-3 -22q74 -17 74 -95q0 -53 -35.5 -80t-93.5 -27z" glyph-name="ccedilla" horiz-adv-x="479" unicode="ç"/><glyph d="M537 219h-344q3 -36 34.5 -61.5t76.5 -25.5q41 0 69.5 18.5t40.5 37.5l110 -85q-18 -37 -76 -76.5t-147 -39.5q-127 0 -203 77.5t-76 196.5q0 118 72 197.5t186 79.5q124 0 191 -75.5t67 -210.5q0 -21 -1 -33zM283 403q-38 0 -60 -23.5t-25 -54.5h170q-2 33 -24.5 55.5 t-60.5 22.5zM130 725h173l66 -145h-139z" glyph-name="egrave" horiz-adv-x="557" unicode="è"/><glyph d="M537 219h-344q3 -36 34.5 -61.5t76.5 -25.5q41 0 69.5 18.5t40.5 37.5l110 -85q-18 -37 -76 -76.5t-147 -39.5q-127 0 -203 77.5t-76 196.5q0 118 72 197.5t186 79.5q124 0 191 -75.5t67 -210.5q0 -21 -1 -33zM283 403q-38 0 -60 -23.5t-25 -54.5h170q-2 33 -24.5 55.5 t-60.5 22.5zM265 725h173l-100 -145h-139z" glyph-name="eacute" horiz-adv-x="557" unicode="é"/><glyph d="M537 219h-344q3 -36 34.5 -61.5t76.5 -25.5q41 0 69.5 18.5t40.5 37.5l110 -85q-18 -37 -76 -76.5t-147 -39.5q-127 0 -203 77.5t-76 196.5q0 118 72 197.5t186 79.5q124 0 191 -75.5t67 -210.5q0 -21 -1 -33zM283 403q-38 0 -60 -23.5t-25 -54.5h170q-2 33 -24.5 55.5 t-60.5 22.5zM202 725h168l96 -145h-138l-41 65l-42 -65h-139z" glyph-name="ecircumflex" horiz-adv-x="557" unicode="ê"/><glyph d="M537 219h-344q3 -36 34.5 -61.5t76.5 -25.5q41 0 69.5 18.5t40.5 37.5l110 -85q-18 -37 -76 -76.5t-147 -39.5q-127 0 -203 77.5t-76 196.5q0 118 72 197.5t186 79.5q124 0 191 -75.5t67 -210.5q0 -21 -1 -33zM283 403q-38 0 -60 -23.5t-25 -54.5h170q-2 33 -24.5 55.5 t-60.5 22.5zM185 576q-34 0 -55.5 22.5t-21.5 54.5t21.5 54.5t55.5 22.5q33 0 55 -22.5t22 -54.5t-22 -54.5t-55 -22.5zM386 576q-34 0 -55.5 22.5t-21.5 54.5t21.5 54.5t55.5 22.5q33 0 55 -22.5t22 -54.5t-22 -54.5t-55 -22.5z" glyph-name="edieresis" horiz-adv-x="557" unicode="ë"/><glyph d="M215 525v-525h-167v525h167zM-16 725h173l66 -145h-139z" glyph-name="igrave" unicode="ì"/><glyph d="M215 525v-525h-167v525h167zM106 725h173l-100 -145h-139z" glyph-name="iacute" unicode="í"/><glyph d="M215 525v-525h-167v525h167zM51 725h168l96 -145h-138l-41 65l-42 -65h-139z" glyph-name="icircumflex" unicode="î"/><glyph d="M215 525v-525h-167v525h167zM35 576q-34 0 -55.5 22.5t-21.5 54.5t21.5 54.5t55.5 22.5q33 0 55 -22.5t22 -54.5t-22 -54.5t-55 -22.5zM236 576q-34 0 -55.5 22.5t-21.5 54.5t21.5 54.5t55.5 22.5q33 0 55 -22.5t22 -54.5t-22 -54.5t-55 -22.5z" glyph-name="idieresis" unicode="ï"/><glyph d="M93 667l93 84q65 -26 141 -76l137 50l14 -105l-64 -23q149 -144 149 -317q0 -58 -16 -109.5t-48 -93t-86 -66t-123 -24.5q-121 0 -195.5 76t-74.5 188t73 178.5t182 66.5q17 0 26 -1q-15 27 -42 49q-107 -37 -158 -54l-14 102l78 27q-26 19 -72 48zM187 251 q0 -50 27 -83.5t75 -33.5q53 0 80 32.5t27 84.5q0 47 -28 80t-74 33q-51 0 -79 -32t-28 -81z" glyph-name="eth" horiz-adv-x="587" unicode="ð"/><glyph d="M356 0v313q0 36 -19 55.5t-50 19.5q-34 0 -53 -21t-19 -54v-313h-167v525h163v-54q17 27 52 47t80 20q47 0 81.5 -16t53 -39.5t29 -59t13.5 -65t3 -67.5v-291h-167zM353 580q-30 0 -70.5 16.5t-53.5 16.5q-30 0 -30 -34h-102q0 66 32.5 107t85.5 41q32 0 71.5 -16.5 t51.5 -16.5q29 0 29 34h102q0 -68 -31.5 -108t-84.5 -40z" glyph-name="ntilde" horiz-adv-x="567" unicode="ñ"/><glyph d="M21 261q0 119 81.5 198t203.5 79q126 0 207 -77.5t81 -197.5q0 -119 -82 -197.5t-206 -78.5q-125 0 -205 77.5t-80 196.5zM188 261q0 -57 33.5 -92t84.5 -35q52 0 86.5 36.5t34.5 92.5q0 57 -34.5 92.5t-86.5 35.5t-85 -36t-33 -94zM152 725h173l66 -145h-139z" glyph-name="ograve" horiz-adv-x="615" unicode="ò"/><glyph d="M21 261q0 119 81.5 198t203.5 79q126 0 207 -77.5t81 -197.5q0 -119 -82 -197.5t-206 -78.5q-125 0 -205 77.5t-80 196.5zM188 261q0 -57 33.5 -92t84.5 -35q52 0 86.5 36.5t34.5 92.5q0 57 -34.5 92.5t-86.5 35.5t-85 -36t-33 -94zM289 725h173l-100 -145h-139z" glyph-name="oacute" horiz-adv-x="615" unicode="ó"/><glyph d="M21 261q0 119 81.5 198t203.5 79q126 0 207 -77.5t81 -197.5q0 -119 -82 -197.5t-206 -78.5q-125 0 -205 77.5t-80 196.5zM188 261q0 -57 33.5 -92t84.5 -35q52 0 86.5 36.5t34.5 92.5q0 57 -34.5 92.5t-86.5 35.5t-85 -36t-33 -94zM227 725h168l96 -145h-138l-41 65 l-42 -65h-139z" glyph-name="ocircumflex" horiz-adv-x="615" unicode="ô"/><glyph d="M21 261q0 119 81.5 198t203.5 79q126 0 207 -77.5t81 -197.5q0 -119 -82 -197.5t-206 -78.5q-125 0 -205 77.5t-80 196.5zM188 261q0 -57 33.5 -92t84.5 -35q52 0 86.5 36.5t34.5 92.5q0 57 -34.5 92.5t-86.5 35.5t-85 -36t-33 -94zM379 580q-30 0 -70.5 16.5t-53.5 16.5 q-30 0 -30 -34h-102q0 66 32.5 107t85.5 41q32 0 71.5 -16.5t51.5 -16.5q29 0 29 34h102q0 -68 -31.5 -108t-84.5 -40z" glyph-name="otilde" horiz-adv-x="615" unicode="õ"/><glyph d="M21 261q0 119 81.5 198t203.5 79q126 0 207 -77.5t81 -197.5q0 -119 -82 -197.5t-206 -78.5q-125 0 -205 77.5t-80 196.5zM188 261q0 -57 33.5 -92t84.5 -35q52 0 86.5 36.5t34.5 92.5q0 57 -34.5 92.5t-86.5 35.5t-85 -36t-33 -94zM209 576q-34 0 -55.5 22.5t-21.5 54.5 t21.5 54.5t55.5 22.5q33 0 55 -22.5t22 -54.5t-22 -54.5t-55 -22.5zM410 576q-34 0 -55.5 22.5t-21.5 54.5t21.5 54.5t55.5 22.5q33 0 55 -22.5t22 -54.5t-22 -54.5t-55 -22.5z" glyph-name="odieresis" horiz-adv-x="615" unicode="ö"/><glyph d="M275 429q-34 0 -57.5 24t-23.5 57q0 35 23.5 59t57.5 24q35 0 59 -24.5t24 -58.5q0 -33 -24.5 -57t-58.5 -24zM275 31q-34 0 -57.5 24t-23.5 57q0 35 23.5 59t57.5 24q35 0 59 -24.5t24 -58.5q0 -33 -24.5 -57t-58.5 -24zM36 246v132h481v-132h-481z" glyph-name="divide" horiz-adv-x="552" unicode="÷"/><glyph d="M21 261q0 119 81.5 198t203.5 79q72 0 136 -29l37 47l76 -59l-35 -44q74 -77 74 -190q0 -119 -82 -197.5t-206 -78.5q-71 0 -132 28l-40 -51l-75 59l37 46q-75 77 -75 192zM188 261q0 -33 12 -60l144 184q-18 6 -38 6q-52 0 -85 -36t-33 -94zM427 263q0 31 -12 57 l-143 -182q13 -4 34 -4q52 0 86.5 36.5t34.5 92.5z" glyph-name="oslash" horiz-adv-x="615" unicode="ø"/><glyph d="M211 525v-313q0 -36 19 -55.5t50 -19.5q34 0 53 21t19 54v313h167v-525h-163v54q-17 -27 -52 -47t-80 -20q-47 0 -81.5 16t-53 39.5t-29 59t-13.5 65t-3 67.5v291h167zM132 725h173l66 -145h-139z" glyph-name="ugrave" horiz-adv-x="563" unicode="ù"/><glyph d="M211 525v-313q0 -36 19 -55.5t50 -19.5q34 0 53 21t19 54v313h167v-525h-163v54q-17 -27 -52 -47t-80 -20q-47 0 -81.5 16t-53 39.5t-29 59t-13.5 65t-3 67.5v291h167zM265 725h173l-100 -145h-139z" glyph-name="uacute" horiz-adv-x="563" unicode="ú"/><glyph d="M211 525v-313q0 -36 19 -55.5t50 -19.5q34 0 53 21t19 54v313h167v-525h-163v54q-17 -27 -52 -47t-80 -20q-47 0 -81.5 16t-53 39.5t-29 59t-13.5 65t-3 67.5v291h167zM200 725h168l96 -145h-138l-41 65l-42 -65h-139z" glyph-name="ucircumflex" horiz-adv-x="563" unicode="û"/><glyph d="M211 525v-313q0 -36 19 -55.5t50 -19.5q34 0 53 21t19 54v313h167v-525h-163v54q-17 -27 -52 -47t-80 -20q-47 0 -81.5 16t-53 39.5t-29 59t-13.5 65t-3 67.5v291h167zM186 576q-34 0 -55.5 22.5t-21.5 54.5t21.5 54.5t55.5 22.5q33 0 55 -22.5t22 -54.5t-22 -54.5 t-55 -22.5zM387 576q-34 0 -55.5 22.5t-21.5 54.5t21.5 54.5t55.5 22.5q33 0 55 -22.5t22 -54.5t-22 -54.5t-55 -22.5z" glyph-name="udieresis" horiz-adv-x="563" unicode="ü"/><glyph d="M549 525l-260 -704h-158l71 196l-196 508h179l93 -302l97 302h174zM266 725h173l-100 -145h-139z" glyph-name="yacute" horiz-adv-x="556" unicode="ý"/><glyph d="M48 -187v910h167v-229q51 44 131 44q113 0 185 -77t72 -198q0 -123 -67.5 -199.5t-180.5 -76.5q-52 0 -89 18t-51 35v-227h-167zM210 264q0 -61 31 -95.5t82 -34.5t82 36t31 94t-31 93t-82 35q-52 0 -82.5 -36.5t-30.5 -91.5z" glyph-name="thorn" horiz-adv-x="625" unicode="þ"/><glyph d="M549 525l-260 -704h-158l71 196l-196 508h179l93 -302l97 302h174zM181 576q-34 0 -55.5 22.5t-21.5 54.5t21.5 54.5t55.5 22.5q33 0 55 -22.5t22 -54.5t-22 -54.5t-55 -22.5zM382 576q-34 0 -55.5 22.5t-21.5 54.5t21.5 54.5t55.5 22.5q33 0 55 -22.5t22 -54.5 t-22 -54.5t-55 -22.5z" glyph-name="ydieresis" horiz-adv-x="556" unicode="ÿ"/><glyph d="M448 157h-220l-50 -157h-172l242 700h180l242 -700h-172zM404 297l-66 222l-66 -222h132zM197 746v119h281v-119h-281z" glyph-name="Amacron" horiz-adv-x="676" unicode="Ā"/><glyph d="M20 163q0 79 55.5 126.5t148.5 47.5q56 0 101 -19v19q0 25 -20.5 41t-59.5 16q-64 0 -132 -33l-62 112q98 65 214 65q127 0 177 -56.5t50 -156.5v-325h-149l-9 29q-42 -42 -119 -42q-82 0 -138.5 47t-56.5 129zM187 169q0 -25 20 -39.5t51 -14.5t50.5 14t19.5 40t-20 41 t-51 15q-30 0 -50 -15.5t-20 -40.5zM132 591v119h281v-119h-281z" glyph-name="amacron" horiz-adv-x="534" unicode="ā"/><glyph d="M448 157h-220l-50 -157h-172l242 700h180l242 -700h-172zM404 297l-66 222l-66 -222h132zM337 739q-76 0 -119.5 42t-43.5 110h117q0 -57 46 -57q47 0 47 57h117q0 -68 -43.5 -110t-120.5 -42z" glyph-name="Abreve" horiz-adv-x="676" unicode="Ă"/><glyph d="M20 163q0 79 55.5 126.5t148.5 47.5q56 0 101 -19v19q0 25 -20.5 41t-59.5 16q-64 0 -132 -33l-62 112q98 65 214 65q127 0 177 -56.5t50 -156.5v-325h-149l-9 29q-42 -42 -119 -42q-82 0 -138.5 47t-56.5 129zM187 169q0 -25 20 -39.5t51 -14.5t50.5 14t19.5 40t-20 41 t-51 15q-30 0 -50 -15.5t-20 -40.5zM266 578q-76 0 -119.5 42t-43.5 110h117q0 -57 46 -57q47 0 47 57h117q0 -68 -43.5 -110t-120.5 -42z" glyph-name="abreve" horiz-adv-x="534" unicode="ă"/><glyph d="M428 700l242 -700q-47 -21 -47 -55q0 -20 14 -29t31 -9v-110q-21 -8 -67 -8q-48 0 -81 25t-33 74q0 40 24.5 69.5t53.5 42.5h-67l-50 157h-220l-50 -157h-172l242 700h180zM404 297l-66 222l-66 -222h132z" glyph-name="Aogonek" horiz-adv-x="676" unicode="Ą"/><glyph d="M387 0h-44l-9 29q-42 -42 -119 -42q-82 0 -138.5 47t-56.5 129q0 79 55.5 126.5t148.5 47.5q67 0 101 -19v19q0 25 -20.5 41t-59.5 16q-64 0 -132 -33l-62 112q98 65 214 65q127 0 177 -56.5t50 -156.5v-325q-47 -21 -47 -55q0 -20 14 -29t31 -9v-110q-21 -8 -67 -8 q-48 0 -81 25t-33 74q0 40 24.5 69.5t53.5 42.5zM187 169q0 -25 20 -39.5t51 -14.5t50.5 14t19.5 40t-20 41t-51 15q-30 0 -50 -15.5t-20 -40.5z" glyph-name="aogonek" horiz-adv-x="534" unicode="ą"/><glyph d="M397 -13q-167 0 -268.5 103.5t-101.5 260.5q0 155 104 258.5t266 103.5q117 0 204 -59l-48 -150q-73 49 -150 49q-92 0 -145 -58t-53 -144t53 -145t145 -59q80 0 153 49l48 -150q-87 -59 -207 -59zM359 880h173l-100 -145h-139z" glyph-name="Cacute" horiz-adv-x="630" unicode="Ć"/><glyph d="M317 134q54 0 99 37l44 -137q-69 -47 -154 -47q-125 0 -205 77t-80 198q0 120 81 198t203 78q88 0 156 -48l-45 -141q-47 39 -105 39q-57 0 -90 -35.5t-33 -89.5q0 -58 35.5 -93.5t93.5 -35.5zM264 725h173l-100 -145h-139z" glyph-name="cacute" horiz-adv-x="479" unicode="ć"/><glyph d="M397 -13q-167 0 -268.5 103.5t-101.5 260.5q0 155 104 258.5t266 103.5q117 0 204 -59l-48 -150q-73 49 -150 49q-92 0 -145 -58t-53 -144t53 -145t145 -59q80 0 153 49l48 -150q-87 -59 -207 -59zM306 880h168l96 -145h-138l-41 65l-42 -65h-139z" glyph-name="Ccircumflex" horiz-adv-x="630" unicode="Ĉ"/><glyph d="M317 134q54 0 99 37l44 -137q-69 -47 -154 -47q-125 0 -205 77t-80 198q0 120 81 198t203 78q88 0 156 -48l-45 -141q-47 39 -105 39q-57 0 -90 -35.5t-33 -89.5q0 -58 35.5 -93.5t93.5 -35.5zM212 725h168l96 -145h-138l-41 65l-42 -65h-139z" glyph-name="ccircumflex" horiz-adv-x="479" unicode="ĉ"/><glyph d="M397 -13q-167 0 -268.5 103.5t-101.5 260.5q0 155 104 258.5t266 103.5q117 0 204 -59l-48 -150q-73 49 -150 49q-92 0 -145 -58t-53 -144t53 -145t145 -59q80 0 153 49l48 -150q-87 -59 -207 -59zM397 727q-35 0 -60.5 25.5t-25.5 60.5q0 36 25.5 61.5t60.5 25.5 q36 0 61.5 -25.5t25.5 -61.5q0 -35 -25.5 -60.5t-61.5 -25.5z" glyph-name="Cdotaccent" horiz-adv-x="630" unicode="Ċ"/><glyph d="M315 134q54 0 99 37l44 -137q-69 -47 -154 -47q-125 0 -205 77t-80 198q0 120 81 198t203 78q88 0 156 -48l-45 -141q-47 39 -105 39q-57 0 -90 -35.5t-33 -89.5q0 -58 35.5 -93.5t93.5 -35.5zM302 565q-35 0 -60.5 25.5t-25.5 60.5q0 36 25.5 61.5t60.5 25.5 q36 0 61.5 -25.5t25.5 -61.5q0 -35 -25.5 -60.5t-61.5 -25.5z" glyph-name="cdotaccent" horiz-adv-x="479" unicode="ċ"/><glyph d="M397 -13q-167 0 -268.5 103.5t-101.5 260.5q0 155 104 258.5t266 103.5q117 0 204 -59l-48 -150q-73 49 -150 49q-92 0 -145 -58t-53 -144t53 -145t145 -59q80 0 153 49l48 -150q-87 -59 -207 -59zM477 735h-168l-96 145h139l42 -65l41 65h138z" glyph-name="Ccaron" horiz-adv-x="630" unicode="Č"/><glyph d="M317 134q54 0 99 37l44 -137q-69 -47 -154 -47q-125 0 -205 77t-80 198q0 120 81 198t203 78q88 0 156 -48l-45 -141q-47 39 -105 39q-57 0 -90 -35.5t-33 -89.5q0 -58 35.5 -93.5t93.5 -35.5zM380 580h-168l-96 145h139l42 -65l41 65h138z" glyph-name="ccaron" horiz-adv-x="479" unicode="č"/><glyph d="M62 700h206q170 0 269.5 -93.5t99.5 -256.5t-99.5 -256.5t-269.5 -93.5h-206v700zM268 552h-35v-404h35q88 0 139.5 52t51.5 150t-51.5 150t-139.5 52zM370 735h-168l-96 145h139l42 -65l41 65h138z" glyph-name="Dcaron" horiz-adv-x="664" unicode="Ď"/><glyph d="M610 549l7 174h138l-46 -174h-99zM415 261q0 61 -31 95.5t-82 34.5t-82 -36t-31 -94t31 -93t82 -35q52 0 82.5 36.5t30.5 91.5zM421 0v41q-16 -18 -53.5 -36t-88.5 -18q-113 0 -185 77t-72 198q0 123 67.5 199.5t180.5 76.5q52 0 89 -18t51 -35v238h167v-723h-156z" glyph-name="dcaron" horiz-adv-x="626" unicode="ď"/><glyph d="M76 700h206q170 0 269.5 -93.5t99.5 -256.5t-99.5 -256.5t-269.5 -93.5h-206v277h-54v149h54v274zM247 552v-126h92v-149h-92v-129h35q88 0 139.5 52t51.5 150t-51.5 150t-139.5 52h-35z" glyph-name="Dcroat" horiz-adv-x="664" unicode="Đ"/><glyph d="M421 0v41q-16 -18 -53.5 -36t-88.5 -18q-113 0 -185 77t-72 198q0 123 67.5 199.5t180.5 76.5q52 0 89 -18t51 -35v77h-126v103h126v58h167v-58h55v-103h-55v-562h-156zM415 261q0 61 -31 95.5t-82 34.5t-82 -36t-31 -94t31 -93t82 -35q52 0 82.5 36.5t30.5 91.5z" glyph-name="dcroat" horiz-adv-x="625" unicode="đ"/><glyph d="M443 0h-381v700h373v-153h-202v-117h172v-152h-172v-125h210v-153zM114 746v119h281v-119h-281z" glyph-name="Emacron" horiz-adv-x="485" unicode="Ē"/><glyph d="M537 219h-344q3 -36 34.5 -61.5t76.5 -25.5q41 0 69.5 18.5t40.5 37.5l110 -85q-18 -37 -76 -76.5t-147 -39.5q-127 0 -203 77.5t-76 196.5q0 118 72 197.5t186 79.5q124 0 191 -75.5t67 -210.5q0 -21 -1 -33zM283 403q-38 0 -60 -23.5t-25 -54.5h170q-2 33 -24.5 55.5 t-60.5 22.5zM148 591v119h281v-119h-281z" glyph-name="emacron" horiz-adv-x="557" unicode="ē"/><glyph d="M443 0h-381v700h373v-153h-202v-117h172v-152h-172v-125h210v-153zM252 739q-76 0 -119.5 42t-43.5 110h117q0 -57 46 -57q47 0 47 57h117q0 -68 -43.5 -110t-120.5 -42z" glyph-name="Ebreve" horiz-adv-x="485" unicode="Ĕ"/><glyph d="M537 219h-344q3 -36 34.5 -61.5t76.5 -25.5q41 0 69.5 18.5t40.5 37.5l110 -85q-18 -37 -76 -76.5t-147 -39.5q-127 0 -203 77.5t-76 196.5q0 118 72 197.5t186 79.5q124 0 191 -75.5t67 -210.5q0 -21 -1 -33zM283 403q-38 0 -60 -23.5t-25 -54.5h170q-2 33 -24.5 55.5 t-60.5 22.5zM282 578q-76 0 -119.5 42t-43.5 110h117q0 -57 46 -57q47 0 47 57h117q0 -68 -43.5 -110t-120.5 -42z" glyph-name="ebreve" horiz-adv-x="557" unicode="ĕ"/><glyph d="M443 0h-381v700h373v-153h-202v-117h172v-152h-172v-125h210v-153zM256 727q-35 0 -60.5 25.5t-25.5 60.5q0 36 25.5 61.5t60.5 25.5q36 0 61.5 -25.5t25.5 -61.5q0 -35 -25.5 -60.5t-61.5 -25.5z" glyph-name="Edotaccent" horiz-adv-x="485" unicode="Ė"/><glyph d="M537 219h-344q3 -36 34.5 -61.5t76.5 -25.5q41 0 69.5 18.5t40.5 37.5l110 -85q-18 -37 -76 -76.5t-147 -39.5q-127 0 -203 77.5t-76 196.5q0 118 72 197.5t186 79.5q124 0 191 -75.5t67 -210.5q0 -21 -1 -33zM283 403q-38 0 -60 -23.5t-25 -54.5h170q-2 33 -24.5 55.5 t-60.5 22.5zM285 565q-35 0 -60.5 25.5t-25.5 60.5q0 36 25.5 61.5t60.5 25.5q36 0 61.5 -25.5t25.5 -61.5q0 -35 -25.5 -60.5t-61.5 -25.5z" glyph-name="edotaccent" horiz-adv-x="557" unicode="ė"/><glyph d="M338 0h-276v700h373v-153h-202v-117h172v-152h-172v-125h210v-153q-47 -21 -47 -55q0 -20 14 -29t31 -9v-110q-21 -8 -67 -8q-48 0 -81 25t-33 74q0 40 24.5 69.5t53.5 42.5z" glyph-name="Eogonek" horiz-adv-x="485" unicode="Ę"/><glyph d="M537 219h-344q3 -36 34.5 -61.5t76.5 -25.5q41 0 69.5 18.5t40.5 37.5l110 -85q-12 -25 -47.5 -55.5t-88.5 -47.5q-47 -21 -47 -55q0 -20 14 -29t31 -9v-110q-21 -8 -67 -8q-48 0 -81 25t-33 74q0 60 58 101q-111 12 -176 87t-65 185q0 118 72 197.5t186 79.5 q124 0 191 -75.5t67 -210.5q0 -21 -1 -33zM283 403q-38 0 -60 -23.5t-25 -54.5h170q-2 33 -24.5 55.5t-60.5 22.5z" glyph-name="eogonek" horiz-adv-x="557" unicode="ę"/><glyph d="M443 0h-381v700h373v-153h-202v-117h172v-152h-172v-125h210v-153zM343 735h-168l-96 145h139l42 -65l41 65h138z" glyph-name="Ecaron" horiz-adv-x="485" unicode="Ě"/><glyph d="M537 219h-344q3 -36 34.5 -61.5t76.5 -25.5q41 0 69.5 18.5t40.5 37.5l110 -85q-18 -37 -76 -76.5t-147 -39.5q-127 0 -203 77.5t-76 196.5q0 118 72 197.5t186 79.5q124 0 191 -75.5t67 -210.5q0 -21 -1 -33zM283 403q-38 0 -60 -23.5t-25 -54.5h170q-2 33 -24.5 55.5 t-60.5 22.5zM367 580h-168l-96 145h139l42 -65l41 65h138z" glyph-name="ecaron" horiz-adv-x="557" unicode="ě"/><glyph d="M710 393v-296q-68 -53 -139.5 -81.5t-180.5 -28.5q-153 0 -257.5 100.5t-104.5 264.5q0 153 102.5 257t263.5 104q187 0 285 -122l-108 -112q-18 24 -63 50t-106 26q-91 0 -144 -56.5t-53 -143.5q0 -95 56 -152.5t141 -57.5q57 0 96 14.5t53 28.5v62h-121v143h280z M313 880h168l96 -145h-138l-41 65l-42 -65h-139z" glyph-name="Gcircumflex" horiz-adv-x="753" unicode="Ĝ"/><glyph d="M409 27v13q-14 -17 -51 -35t-89 -18q-113 0 -180.5 76.5t-67.5 199.5q0 121 72 198t185 77q51 0 88.5 -18t53.5 -36v41h156v-462q0 -70 -23 -121t-64.5 -79.5t-91.5 -41.5t-112 -13q-106 0 -194 45l49 128q69 -32 145 -32q124 0 124 78zM414 264q0 54 -31 90.5t-83 36.5 q-51 0 -81.5 -34.5t-30.5 -92.5t31 -94t82 -36t82 34.5t31 95.5zM226 725h168l96 -145h-138l-41 65l-42 -65h-139z" glyph-name="gcircumflex" horiz-adv-x="620" unicode="ĝ"/><glyph d="M710 393v-296q-68 -53 -139.5 -81.5t-180.5 -28.5q-153 0 -257.5 100.5t-104.5 264.5q0 153 102.5 257t263.5 104q187 0 285 -122l-108 -112q-18 24 -63 50t-106 26q-91 0 -144 -56.5t-53 -143.5q0 -95 56 -152.5t141 -57.5q57 0 96 14.5t53 28.5v62h-121v143h280z M399 739q-76 0 -119.5 42t-43.5 110h117q0 -57 46 -57q47 0 47 57h117q0 -68 -43.5 -110t-120.5 -42z" glyph-name="Gbreve" horiz-adv-x="753" unicode="Ğ"/><glyph d="M409 27v13q-14 -17 -51 -35t-89 -18q-113 0 -180.5 76.5t-67.5 199.5q0 121 72 198t185 77q51 0 88.5 -18t53.5 -36v41h156v-462q0 -70 -23 -121t-64.5 -79.5t-91.5 -41.5t-112 -13q-106 0 -194 45l49 128q69 -32 145 -32q124 0 124 78zM414 264q0 54 -31 90.5t-83 36.5 q-51 0 -81.5 -34.5t-30.5 -92.5t31 -94t82 -36t82 34.5t31 95.5zM309 578q-76 0 -119.5 42t-43.5 110h117q0 -57 46 -57q47 0 47 57h117q0 -68 -43.5 -110t-120.5 -42z" glyph-name="gbreve" horiz-adv-x="620" unicode="ğ"/><glyph d="M710 393v-296q-68 -53 -139.5 -81.5t-180.5 -28.5q-153 0 -257.5 100.5t-104.5 264.5q0 153 102.5 257t263.5 104q187 0 285 -122l-108 -112q-18 24 -63 50t-106 26q-91 0 -144 -56.5t-53 -143.5q0 -95 56 -152.5t141 -57.5q57 0 96 14.5t53 28.5v62h-121v143h280z M402 727q-35 0 -60.5 25.5t-25.5 60.5q0 36 25.5 61.5t60.5 25.5q36 0 61.5 -25.5t25.5 -61.5q0 -35 -25.5 -60.5t-61.5 -25.5z" glyph-name="Gdotaccent" horiz-adv-x="753" unicode="Ġ"/><glyph d="M409 27v13q-14 -17 -51 -35t-89 -18q-113 0 -180.5 76.5t-67.5 199.5q0 121 72 198t185 77q51 0 88.5 -18t53.5 -36v41h156v-462q0 -70 -23 -121t-64.5 -79.5t-91.5 -41.5t-112 -13q-106 0 -194 45l49 128q69 -32 145 -32q124 0 124 78zM414 264q0 54 -31 90.5t-83 36.5 q-51 0 -81.5 -34.5t-30.5 -92.5t31 -94t82 -36t82 34.5t31 95.5zM310 565q-35 0 -60.5 25.5t-25.5 60.5q0 36 25.5 61.5t60.5 25.5q36 0 61.5 -25.5t25.5 -61.5q0 -35 -25.5 -60.5t-61.5 -25.5z" glyph-name="gdotaccent" horiz-adv-x="620" unicode="ġ"/><glyph d="M710 393v-296q-68 -53 -139.5 -81.5t-180.5 -28.5q-153 0 -257.5 100.5t-104.5 264.5q0 153 102.5 257t263.5 104q187 0 285 -122l-108 -112q-18 24 -63 50t-106 26q-91 0 -144 -56.5t-53 -143.5q0 -95 56 -152.5t141 -57.5q57 0 96 14.5t53 28.5v62h-121v143h280z M335 -257q40 28 51 64q-31 7 -48 30.5t-17 51.5q0 35 25.5 59.5t60.5 24.5q39 0 64.5 -27t25.5 -72q0 -56 -30 -108.5t-77 -83.5z" glyph-name="Gcommaaccent" horiz-adv-x="753" unicode="Ģ"/><glyph d="M409 27v13q-14 -17 -51 -35t-89 -18q-113 0 -180.5 76.5t-67.5 199.5q0 121 72 198t185 77q51 0 88.5 -18t53.5 -36v41h156v-462q0 -70 -23 -121t-64.5 -79.5t-91.5 -41.5t-112 -13q-106 0 -194 45l49 128q69 -32 145 -32q124 0 124 78zM414 264q0 54 -31 90.5t-83 36.5 q-51 0 -81.5 -34.5t-30.5 -92.5t31 -94t82 -36t82 34.5t31 95.5zM380 798q-40 -28 -51 -64q31 -7 48 -30.5t17 -51.5q0 -35 -25.5 -59.5t-60.5 -24.5q-39 0 -64.5 27t-25.5 72q0 56 30 108.5t77 83.5z" glyph-name="gcommaaccent" horiz-adv-x="620" unicode="ģ"/><glyph d="M654 700v-700h-171v274h-250v-274h-171v700h171v-272h250v272h171zM278 880h168l96 -145h-138l-41 65l-42 -65h-139z" glyph-name="Hcircumflex" horiz-adv-x="716" unicode="Ĥ"/><glyph d="M358 0v313q0 36 -19 55.5t-50 19.5q-34 0 -54 -21.5t-20 -53.5v-313h-167v723h167v-252q18 27 51.5 47t78.5 20q47 0 81.5 -16t53 -39.5t29 -59t13.5 -65t3 -67.5v-291h-167zM215 895h168l96 -145h-138l-41 65l-42 -65h-139z" glyph-name="hcircumflex" horiz-adv-x="569" unicode="ĥ"/><glyph d="M654 700v-78h56v-113h-56v-509h-171v274h-250v-274h-171v509h-56v113h56v78h171v-78h250v78h171zM233 428h250v81h-250v-81z" glyph-name="Hbar" horiz-adv-x="716" unicode="Ħ"/><glyph d="M3 569v103h45v51h167v-51h131v-103h-131v-98q18 27 51.5 47t78.5 20q47 0 81.5 -16t53 -39.5t29 -59t13.5 -65t3 -67.5v-291h-167v313q0 36 -19 55.5t-50 19.5q-34 0 -54 -21.5t-20 -53.5v-313h-167v569h-45z" glyph-name="hbar" horiz-adv-x="569" unicode="ħ"/><glyph d="M233 700v-700h-171v700h171zM218 737q-30 0 -70.5 16.5t-53.5 16.5q-30 0 -30 -34h-102q0 66 32.5 107t85.5 41q32 0 71.5 -16.5t51.5 -16.5q29 0 29 34h102q0 -68 -31.5 -108t-84.5 -40z" glyph-name="Itilde" horiz-adv-x="295" unicode="Ĩ"/><glyph d="M215 525v-525h-167v525h167zM204 580q-30 0 -70.5 16.5t-53.5 16.5q-30 0 -30 -34h-102q0 66 32.5 107t85.5 41q32 0 71.5 -16.5t51.5 -16.5q29 0 29 34h102q0 -68 -31.5 -108t-84.5 -40z" glyph-name="itilde" unicode="ĩ"/><glyph d="M233 700v-700h-171v700h171zM6 746v119h281v-119h-281z" glyph-name="Imacron" horiz-adv-x="295" unicode="Ī"/><glyph d="M215 525v-525h-167v525h167zM-8 591v119h281v-119h-281z" glyph-name="imacron" unicode="ī"/><glyph d="M233 700v-700h-171v700h171zM148 739q-76 0 -119.5 42t-43.5 110h117q0 -57 46 -57q47 0 47 57h117q0 -68 -43.5 -110t-120.5 -42z" glyph-name="Ibreve" horiz-adv-x="295" unicode="Ĭ"/><glyph d="M215 525v-525h-167v525h167zM133 578q-76 0 -119.5 42t-43.5 110h117q0 -57 46 -57q47 0 47 57h117q0 -68 -43.5 -110t-120.5 -42z" glyph-name="ibreve" unicode="ĭ"/><glyph d="M128 0h-66v700h171v-700q-47 -21 -47 -55q0 -20 14 -29t31 -9v-110q-21 -8 -67 -8q-48 0 -81 25t-33 74q0 40 24.5 69.5t53.5 42.5z" glyph-name="Iogonek" horiz-adv-x="295" unicode="Į"/><glyph d="M110 0h-62v525h167v-525q-47 -21 -47 -55q0 -20 14 -29t31 -9v-110q-21 -8 -67 -8q-48 0 -81 25t-33 74q0 40 24.5 69.5t53.5 42.5zM130 550q-40 0 -67.5 28t-27.5 67q0 40 27.5 68t67.5 28t68 -28t28 -68q0 -39 -28 -67t-68 -28z" glyph-name="iogonek" unicode="į"/><glyph d="M233 700v-700h-171v700h171zM150 727q-35 0 -60.5 25.5t-25.5 60.5q0 36 25.5 61.5t60.5 25.5q36 0 61.5 -25.5t25.5 -61.5q0 -35 -25.5 -60.5t-61.5 -25.5z" glyph-name="Idotaccent" horiz-adv-x="295" unicode="İ"/><glyph d="M215 525v-525h-167v525h167z" glyph-name="dotlessi" unicode="ı"/><glyph d="M233 700v-700h-171v700h171zM622 700v-518q0 -99 -59 -143.5t-153 -44.5q-50 0 -96 11l20 151q27 -5 54 -5q31 0 47 17.5t16 45.5v486h171z" glyph-name="IJ" horiz-adv-x="684" unicode="Ĳ"/><glyph d="M215 525v-525h-167v525h167zM130 557q-40 0 -66.5 25.5t-26.5 64.5q0 40 26.5 65.5t66.5 25.5t67 -26t27 -65t-27 -64.5t-67 -25.5zM478 525v-527q0 -190 -220 -190l-37 3v141q13 -2 24 -2q66 0 66 56v519h167zM393 557q-40 0 -66.5 25.5t-26.5 64.5q0 40 26.5 65.5 t66.5 25.5t67 -26t27 -65t-27 -64.5t-67 -25.5z" glyph-name="ij" horiz-adv-x="526" unicode="ĳ"/><glyph d="M327 700v-518q0 -99 -59 -143.5t-153 -44.5q-50 0 -96 11l20 151q27 -5 54 -5q31 0 47 17.5t16 45.5v486h171zM142 880h168l96 -145h-138l-41 65l-42 -65h-139z" glyph-name="Jcircumflex" horiz-adv-x="389" unicode="Ĵ"/><glyph d="M215 525v-527q0 -190 -220 -190l-37 3v141q13 -2 24 -2q66 0 66 56v519h167zM48 725h168l96 -145h-138l-41 65l-42 -65h-139z" glyph-name="jcircumflex" unicode="ĵ"/><glyph d="M233 700v-270l204 270h191l-262 -335l267 -365h-196l-204 282v-282h-171v700h171zM246 -257q40 28 51 64q-31 7 -48 30.5t-17 51.5q0 35 25.5 59.5t60.5 24.5q39 0 64.5 -27t25.5 -72q0 -56 -30 -108.5t-77 -83.5z" glyph-name="Kcommaaccent" horiz-adv-x="640" unicode="Ķ"/><glyph d="M544 525l-169 -240l183 -285h-196l-147 245v-245h-167v723h167v-409l142 211h187zM205 -257q40 28 51 64q-31 7 -48 30.5t-17 51.5q0 35 25.5 59.5t60.5 24.5q39 0 64.5 -27t25.5 -72q0 -56 -30 -108.5t-77 -83.5z" glyph-name="kcommaaccent" horiz-adv-x="559" unicode="ķ"/><glyph d="M544 525l-169 -246l183 -279h-196l-147 239v-239h-167v525h167v-217l142 217h187z" glyph-name="kgreenlandic" horiz-adv-x="559" unicode="ĸ"/><glyph d="M443 0h-381v700h171v-547h210v-153zM143 880h173l-100 -145h-139z" glyph-name="Lacute" horiz-adv-x="458" unicode="Ĺ"/><glyph d="M48 0v723h167v-723h-167zM128 895h173l-100 -145h-139z" glyph-name="lacute" unicode="ĺ"/><glyph d="M443 0h-381v700h171v-547h210v-153zM166 -257q40 28 51 64q-31 7 -48 30.5t-17 51.5q0 35 25.5 59.5t60.5 24.5q39 0 64.5 -27t25.5 -72q0 -56 -30 -108.5t-77 -83.5z" glyph-name="Lcommaaccent" horiz-adv-x="458" unicode="Ļ"/><glyph d="M48 0v723h167v-723h-167zM58 -257q40 28 51 64q-31 7 -48 30.5t-17 51.5q0 35 25.5 59.5t60.5 24.5q39 0 64.5 -27t25.5 -72q0 -56 -30 -108.5t-77 -83.5z" glyph-name="lcommaaccent" unicode="ļ"/><glyph d="M291 526l7 174h138l-46 -174h-99zM443 0h-381v700h171v-547h210v-153z" glyph-name="Lcaron" horiz-adv-x="459" unicode="Ľ"/><glyph d="M251 549l7 174h138l-46 -174h-99zM48 0v723h167v-723h-167z" glyph-name="lcaron" horiz-adv-x="266" unicode="ľ"/><glyph d="M443 0h-381v700h171v-547h210v-153zM380 269q-41 0 -70 29t-29 70t29 70.5t70 29.5t70.5 -29.5t29.5 -70.5t-29.5 -70t-70.5 -29z" glyph-name="Ldot" horiz-adv-x="458" unicode="Ŀ"/><glyph d="M48 0v723h167v-723h-167zM361 269q-41 0 -70 29t-29 70t29 70.5t70 29.5t70.5 -29.5t29.5 -70.5t-29.5 -70t-70.5 -29z" glyph-name="ldot" horiz-adv-x="442" unicode="ŀ"/><glyph d="M443 0h-381v199l-55 -29v156l55 30v344h171v-250l99 55v-161l-99 -53v-138h210v-153z" glyph-name="Lslash" horiz-adv-x="458" unicode="Ł"/><glyph d="M73 393v330h167v-233l57 33v-161l-57 -33v-329h-167v235l-48 -27v158z" glyph-name="lslash" horiz-adv-x="321" unicode="ł"/><glyph d="M488 0l-260 429v-429h-168v700h174l256 -434v434h168v-700h-170zM353 880h173l-100 -145h-139z" glyph-name="Nacute" horiz-adv-x="718" unicode="Ń"/><glyph d="M356 0v313q0 36 -19 55.5t-50 19.5q-34 0 -53 -21t-19 -54v-313h-167v525h163v-54q17 27 52 47t80 20q47 0 81.5 -16t53 -39.5t29 -59t13.5 -65t3 -67.5v-291h-167zM275 725h173l-100 -145h-139z" glyph-name="nacute" horiz-adv-x="567" unicode="ń"/><glyph d="M488 0l-260 429v-429h-168v700h174l256 -434v434h168v-700h-170zM285 -257q40 28 51 64q-31 7 -48 30.5t-17 51.5q0 35 25.5 59.5t60.5 24.5q39 0 64.5 -27t25.5 -72q0 -56 -30 -108.5t-77 -83.5z" glyph-name="Ncommaaccent" horiz-adv-x="718" unicode="Ņ"/><glyph d="M356 0v313q0 36 -19 55.5t-50 19.5q-34 0 -53 -21t-19 -54v-313h-167v525h163v-54q17 27 52 47t80 20q47 0 81.5 -16t53 -39.5t29 -59t13.5 -65t3 -67.5v-291h-167zM210 -257q40 28 51 64q-31 7 -48 30.5t-17 51.5q0 35 25.5 59.5t60.5 24.5q39 0 64.5 -27t25.5 -72 q0 -56 -30 -108.5t-77 -83.5z" glyph-name="ncommaaccent" horiz-adv-x="567" unicode="ņ"/><glyph d="M488 0l-260 429v-429h-168v700h174l256 -434v434h168v-700h-170zM451 735h-168l-96 145h139l42 -65l41 65h138z" glyph-name="Ncaron" horiz-adv-x="718" unicode="Ň"/><glyph d="M356 0v313q0 36 -19 55.5t-50 19.5q-34 0 -53 -21t-19 -54v-313h-167v525h163v-54q17 27 52 47t80 20q47 0 81.5 -16t53 -39.5t29 -59t13.5 -65t3 -67.5v-291h-167zM367 580h-168l-96 145h139l42 -65l41 65h138z" glyph-name="ncaron" horiz-adv-x="567" unicode="ň"/><glyph d="M457 0v313q0 36 -19 55.5t-50 19.5q-34 0 -53 -21t-19 -54v-313h-167v525h163v-54q17 27 52 47t80 20q47 0 81.5 -16t53 -39.5t29 -59t13.5 -65t3 -67.5v-291h-167zM-28 504q40 28 51 64q-31 7 -48 30.5t-17 51.5q0 35 25.5 59.5t60.5 24.5q39 0 64.5 -27t25.5 -72 q0 -56 -30 -108.5t-77 -83.5z" glyph-name="napostrophe" horiz-adv-x="668" unicode="ŉ"/><glyph d="M658 700v-704q0 -99 -59 -143.5t-153 -44.5q-50 0 -96 11l20 151q32 -5 54 -5q53 0 64 35l-260 429v-429h-168v700h174l256 -434v434h168z" glyph-name="Eng" horiz-adv-x="718" unicode="Ŋ"/><glyph d="M356 0v313q0 36 -19 55.5t-50 19.5q-34 0 -53 -21t-19 -54v-313h-167v525h163v-54q17 27 52 47t80 20q47 0 81.5 -16t53 -39.5t29 -59t13.5 -65t3 -67.5v-293q0 -190 -220 -190q-11 0 -23.5 1t-13.5 1v140h24q61 0 66 50z" glyph-name="eng" horiz-adv-x="567" unicode="ŋ"/><glyph d="M394 -13q-163 0 -265 103.5t-102 260.5q0 155 102 258.5t265 103.5t265 -103.5t102 -258.5q0 -157 -102 -260.5t-265 -103.5zM394 553q-83 0 -136 -57.5t-53 -144.5q0 -89 53 -146.5t136 -57.5t136 57.5t53 146.5q0 87 -53 144.5t-136 57.5zM253 746v119h281v-119h-281z" glyph-name="Omacron" horiz-adv-x="788" unicode="Ō"/><glyph d="M21 261q0 119 81.5 198t203.5 79q126 0 207 -77.5t81 -197.5q0 -119 -82 -197.5t-206 -78.5q-125 0 -205 77.5t-80 196.5zM188 261q0 -57 33.5 -92t84.5 -35q52 0 86.5 36.5t34.5 92.5q0 57 -34.5 92.5t-86.5 35.5t-85 -36t-33 -94zM167 591v119h281v-119h-281z" glyph-name="omacron" horiz-adv-x="615" unicode="ō"/><glyph d="M394 -13q-163 0 -265 103.5t-102 260.5q0 155 102 258.5t265 103.5t265 -103.5t102 -258.5q0 -157 -102 -260.5t-265 -103.5zM394 553q-83 0 -136 -57.5t-53 -144.5q0 -89 53 -146.5t136 -57.5t136 57.5t53 146.5q0 87 -53 144.5t-136 57.5zM393 739q-76 0 -119.5 42 t-43.5 110h117q0 -57 46 -57q47 0 47 57h117q0 -68 -43.5 -110t-120.5 -42z" glyph-name="Obreve" horiz-adv-x="788" unicode="Ŏ"/><glyph d="M21 261q0 119 81.5 198t203.5 79q126 0 207 -77.5t81 -197.5q0 -119 -82 -197.5t-206 -78.5q-125 0 -205 77.5t-80 196.5zM188 261q0 -57 33.5 -92t84.5 -35q52 0 86.5 36.5t34.5 92.5q0 57 -34.5 92.5t-86.5 35.5t-85 -36t-33 -94zM307 578q-76 0 -119.5 42t-43.5 110 h117q0 -57 46 -57q47 0 47 57h117q0 -68 -43.5 -110t-120.5 -42z" glyph-name="obreve" horiz-adv-x="615" unicode="ŏ"/><glyph d="M394 -13q-163 0 -265 103.5t-102 260.5q0 155 102 258.5t265 103.5t265 -103.5t102 -258.5q0 -157 -102 -260.5t-265 -103.5zM394 553q-83 0 -136 -57.5t-53 -144.5q0 -89 53 -146.5t136 -57.5t136 57.5t53 146.5q0 87 -53 144.5t-136 57.5zM293 880h157l-100 -145h-123z M486 880h157l-100 -145h-123z" glyph-name="Ohungarumlaut" horiz-adv-x="788" unicode="Ő"/><glyph d="M21 261q0 119 81.5 198t203.5 79q126 0 207 -77.5t81 -197.5q0 -119 -82 -197.5t-206 -78.5q-125 0 -205 77.5t-80 196.5zM188 261q0 -57 33.5 -92t84.5 -35q52 0 86.5 36.5t34.5 92.5q0 57 -34.5 92.5t-86.5 35.5t-85 -36t-33 -94zM211 725h157l-100 -145h-123zM404 725 h157l-100 -145h-123z" glyph-name="ohungarumlaut" horiz-adv-x="615" unicode="ő"/><glyph d="M394 -13q-163 0 -265 103.5t-102 260.5q0 155 102 258.5t265 103.5q52 0 104 -13h460v-153h-250q33 -55 45 -117h175v-152h-173q-11 -65 -47 -125h258v-153h-468q-52 -13 -104 -13zM394 553q-83 0 -136 -57.5t-53 -144.5q0 -89 53 -146.5t136 -57.5t136 57.5t53 146.5 q0 87 -53 144.5t-136 57.5z" glyph-name="OE" horiz-adv-x="1008" unicode="Œ"/><glyph d="M936 219h-344q3 -36 34.5 -61.5t76.5 -25.5q41 0 69.5 18.5t40.5 37.5l110 -85q-18 -37 -76 -76.5t-147 -39.5q-121 0 -195 72q-80 -72 -199 -72q-125 0 -205 77.5t-80 196.5t81.5 198t203.5 79q120 0 199 -71q69 71 174 71q124 0 191 -75.5t67 -210.5q0 -21 -1 -33z M188 261q0 -57 33.5 -92t84.5 -35q52 0 86.5 36.5t34.5 92.5q0 57 -34.5 92.5t-86.5 35.5t-85 -36t-33 -94zM682 403q-38 0 -60 -23.5t-25 -54.5h170q-2 33 -24.5 55.5t-60.5 22.5z" glyph-name="oe" horiz-adv-x="956" unicode="œ"/><glyph d="M535 485q0 -60 -25 -109.5t-72 -75.5l161 -300h-189l-125 259h-52v-259h-171v700h228q245 0 245 -215zM276 553h-43v-151h51q35 0 55.5 20.5t20.5 56.5q0 74 -84 74zM256 880h173l-100 -145h-139z" glyph-name="Racute" horiz-adv-x="605" unicode="Ŕ"/><glyph d="M350 538v-170q-14 2 -27 2q-108 0 -108 -138v-232h-167v525h163v-70q41 83 139 83zM187 725h173l-100 -145h-139z" glyph-name="racute" horiz-adv-x="369" unicode="ŕ"/><glyph d="M535 485q0 -60 -25 -109.5t-72 -75.5l161 -300h-189l-125 259h-52v-259h-171v700h228q245 0 245 -215zM276 553h-43v-151h51q35 0 55.5 20.5t20.5 56.5q0 74 -84 74zM228 -257q40 28 51 64q-31 7 -48 30.5t-17 51.5q0 35 25.5 59.5t60.5 24.5q39 0 64.5 -27t25.5 -72 q0 -56 -30 -108.5t-77 -83.5z" glyph-name="Rcommaaccent" horiz-adv-x="605" unicode="Ŗ"/><glyph d="M350 538v-170q-14 2 -27 2q-108 0 -108 -138v-232h-167v525h163v-70q41 83 139 83zM85 -257q40 28 51 64q-31 7 -48 30.5t-17 51.5q0 35 25.5 59.5t60.5 24.5q39 0 64.5 -27t25.5 -72q0 -56 -30 -108.5t-77 -83.5z" glyph-name="rcommaaccent" horiz-adv-x="369" unicode="ŗ"/><glyph d="M535 485q0 -60 -25 -109.5t-72 -75.5l161 -300h-189l-125 259h-52v-259h-171v700h228q245 0 245 -215zM276 553h-43v-151h51q35 0 55.5 20.5t20.5 56.5q0 74 -84 74zM359 735h-168l-96 145h139l42 -65l41 65h138z" glyph-name="Rcaron" horiz-adv-x="605" unicode="Ř"/><glyph d="M350 538v-170q-14 2 -27 2q-108 0 -108 -138v-232h-167v525h163v-70q41 83 139 83zM269 580h-168l-96 145h139l42 -65l41 65h138z" glyph-name="rcaron" horiz-adv-x="369" unicode="ř"/><glyph d="M267 713q53 0 95.5 -17t68 -45t40 -51.5t22.5 -48.5l-142 -65q-9 20 -17.5 32.5t-27 24.5t-43.5 12t-40 -13.5t-15 -33.5q0 -26 30 -46.5t73 -39t86 -42.5t73 -68t30 -103q0 -99 -66 -160.5t-179 -61.5q-55 0 -100 18t-72 46.5t-42.5 53.5t-23.5 49l143 71 q15 -33 43 -55.5t62 -22.5q62 0 62 49q0 21 -21.5 39.5t-53.5 32t-70 34t-70 44.5t-53.5 65t-21.5 94q0 94 63 151t167 57zM247 880h173l-100 -145h-139z" glyph-name="Sacute" horiz-adv-x="529" unicode="Ś"/><glyph d="M216 -13q-69 0 -122 27t-80 63l94 91q52 -46 116 -46q47 0 47 29q0 14 -18 24.5t-44.5 18t-57.5 21t-57.5 31.5t-44.5 51.5t-18 78.5q0 74 57 118t145 44q122 0 188 -90l-108 -85q-41 41 -87 41q-38 0 -38 -26q0 -18 25 -29.5t60.5 -22t71 -26.5t60.5 -51.5t25 -88.5 q0 -79 -61 -126t-153 -47zM208 725h173l-100 -145h-139z" glyph-name="sacute" horiz-adv-x="444" unicode="ś"/><glyph d="M267 713q53 0 95.5 -17t68 -45t40 -51.5t22.5 -48.5l-142 -65q-9 20 -17.5 32.5t-27 24.5t-43.5 12t-40 -13.5t-15 -33.5q0 -26 30 -46.5t73 -39t86 -42.5t73 -68t30 -103q0 -99 -66 -160.5t-179 -61.5q-55 0 -100 18t-72 46.5t-42.5 53.5t-23.5 49l143 71 q15 -33 43 -55.5t62 -22.5q62 0 62 49q0 21 -21.5 39.5t-53.5 32t-70 34t-70 44.5t-53.5 65t-21.5 94q0 94 63 151t167 57zM185 880h168l96 -145h-138l-41 65l-42 -65h-139z" glyph-name="Scircumflex" horiz-adv-x="529" unicode="Ŝ"/><glyph d="M216 -13q-69 0 -122 27t-80 63l94 91q52 -46 116 -46q47 0 47 29q0 14 -18 24.5t-44.5 18t-57.5 21t-57.5 31.5t-44.5 51.5t-18 78.5q0 74 57 118t145 44q122 0 188 -90l-108 -85q-41 41 -87 41q-38 0 -38 -26q0 -18 25 -29.5t60.5 -22t71 -26.5t60.5 -51.5t25 -88.5 q0 -79 -61 -126t-153 -47zM151 725h168l96 -145h-138l-41 65l-42 -65h-139z" glyph-name="scircumflex" horiz-adv-x="444" unicode="ŝ"/><glyph d="M267 713q53 0 95.5 -17t68 -45t40 -51.5t22.5 -48.5l-142 -65q-9 20 -17.5 32.5t-27 24.5t-43.5 12t-40 -13.5t-15 -33.5q0 -26 30 -46.5t73 -39t86 -42.5t73 -68t30 -103q0 -88 -54 -148t-147 -71l-3 -25q74 -17 74 -95q0 -53 -35.5 -80t-93.5 -27q-32 0 -66 12l20 80 q20 -5 34 -5q16 0 26.5 7.5t10.5 20.5q0 26 -45 26l-18 -1l14 87q-46 6 -83.5 25t-60 45.5t-36 49t-20.5 44.5l143 71q15 -33 43 -55.5t62 -22.5q62 0 62 49q0 21 -21.5 39.5t-53.5 32t-70 34t-70 44.5t-53.5 65t-21.5 94q0 94 63 151t167 57z" glyph-name="Scedilla" horiz-adv-x="529" unicode="Ş"/><glyph d="M201 -237q-32 0 -66 12l20 80q20 -5 34 -5q16 0 26.5 7.5t10.5 20.5q0 26 -45 26l-18 -1l14 87q-56 7 -98 31.5t-65 55.5l94 91q52 -46 116 -46q47 0 47 29q0 14 -18 24.5t-44.5 18t-57.5 21t-57.5 31.5t-44.5 51.5t-18 78.5q0 74 57 118t145 44q122 0 188 -90l-108 -85 q-41 41 -87 41q-38 0 -38 -26q0 -18 25 -29.5t60.5 -22t71 -26.5t60.5 -51.5t25 -88.5q0 -69 -47.5 -114t-123.5 -56l-3 -25q74 -17 74 -95q0 -53 -35.5 -80t-93.5 -27z" glyph-name="scedilla" horiz-adv-x="444" unicode="ş"/><glyph d="M267 713q53 0 95.5 -17t68 -45t40 -51.5t22.5 -48.5l-142 -65q-9 20 -17.5 32.5t-27 24.5t-43.5 12t-40 -13.5t-15 -33.5q0 -26 30 -46.5t73 -39t86 -42.5t73 -68t30 -103q0 -99 -66 -160.5t-179 -61.5q-55 0 -100 18t-72 46.5t-42.5 53.5t-23.5 49l143 71 q15 -33 43 -55.5t62 -22.5q62 0 62 49q0 21 -21.5 39.5t-53.5 32t-70 34t-70 44.5t-53.5 65t-21.5 94q0 94 63 151t167 57zM348 735h-168l-96 145h139l42 -65l41 65h138z" glyph-name="Scaron" horiz-adv-x="529" unicode="Š"/><glyph d="M216 -13q-69 0 -122 27t-80 63l94 91q52 -46 116 -46q47 0 47 29q0 14 -18 24.5t-44.5 18t-57.5 21t-57.5 31.5t-44.5 51.5t-18 78.5q0 74 57 118t145 44q122 0 188 -90l-108 -85q-41 41 -87 41q-38 0 -38 -26q0 -18 25 -29.5t60.5 -22t71 -26.5t60.5 -51.5t25 -88.5 q0 -79 -61 -126t-153 -47zM314 580h-168l-96 145h139l42 -65l41 65h138z" glyph-name="scaron" horiz-adv-x="444" unicode="š"/><glyph d="M492 547h-151v-547h-171v547h-151v153h473v-153zM178 -257q40 28 51 64q-31 7 -48 30.5t-17 51.5q0 35 25.5 59.5t60.5 24.5q39 0 64.5 -27t25.5 -72q0 -56 -30 -108.5t-77 -83.5z" glyph-name="Tcommaaccent" horiz-adv-x="511" unicode="Ţ"/><glyph d="M492 547h-151v-547h-171v547h-151v153h473v-153zM178 -257q40 28 51 64q-31 7 -48 30.5t-17 51.5q0 35 25.5 59.5t60.5 24.5q39 0 64.5 -27t25.5 -72q0 -56 -30 -108.5t-77 -83.5z" glyph-name="Tcommaaccent" horiz-adv-x="511" unicode="Ț"/><glyph d="M229 636v-111h89v-135h-89v-193q0 -57 65 -57q17 0 28 1v-143q-22 -6 -64 -6q-97 0 -146.5 50t-49.5 163v185h-51v135h51v111h167zM115 -257q40 28 51 64q-31 7 -48 30.5t-17 51.5q0 35 25.5 59.5t60.5 24.5q39 0 64.5 -27t25.5 -72q0 -56 -30 -108.5t-77 -83.5z" glyph-name="tcommaaccent" horiz-adv-x="352" unicode="ţ"/><glyph d="M229 636v-111h89v-135h-89v-193q0 -57 65 -57q17 0 28 1v-143q-22 -6 -64 -6q-97 0 -146.5 50t-49.5 163v185h-51v135h51v111h167zM115 -257q40 28 51 64q-31 7 -48 30.5t-17 51.5q0 35 25.5 59.5t60.5 24.5q39 0 64.5 -27t25.5 -72q0 -56 -30 -108.5t-77 -83.5z" glyph-name="tcommaaccent" horiz-adv-x="352" unicode="ț"/><glyph d="M492 547h-151v-547h-171v547h-151v153h473v-153zM342 735h-168l-96 145h139l42 -65l41 65h138z" glyph-name="Tcaron" horiz-adv-x="511" unicode="Ť"/><glyph d="M281 549l7 174h138l-46 -174h-99zM229 636v-111h89v-135h-89v-193q0 -57 65 -57q17 0 28 1v-143q-22 -6 -64 -6q-97 0 -146.5 50t-49.5 163v185h-51v135h51v111h167z" glyph-name="tcaron" horiz-adv-x="353" unicode="ť"/><glyph d="M492 547h-151v-130h114v-123h-114v-294h-171v294h-111v123h111v130h-151v153h473v-153z" glyph-name="Tbar" horiz-adv-x="511" unicode="Ŧ"/><glyph d="M229 636v-111h89v-135h-89v-62h79v-107h-79v-24q0 -34 20 -45.5t54 -11.5h19v-142q-22 -6 -64 -6q-97 0 -146.5 50t-49.5 163v16h-56v107h56v62h-51v135h51v111h167z" glyph-name="tbar" horiz-adv-x="352" unicode="ŧ"/><glyph d="M352 -12q-138 0 -215 76.5t-77 204.5v431h171v-431q0 -57 32.5 -90t89.5 -33t88.5 33t31.5 91v430h171v-430q0 -126 -78 -204t-214 -78zM429 737q-30 0 -70.5 16.5t-53.5 16.5q-30 0 -30 -34h-102q0 66 32.5 107t85.5 41q32 0 71.5 -16.5t51.5 -16.5q29 0 29 34h102 q0 -68 -31.5 -108t-84.5 -40z" glyph-name="Utilde" horiz-adv-x="704" unicode="Ũ"/><glyph d="M211 525v-313q0 -36 19 -55.5t50 -19.5q34 0 53 21t19 54v313h167v-525h-163v54q-17 -27 -52 -47t-80 -20q-47 0 -81.5 16t-53 39.5t-29 59t-13.5 65t-3 67.5v291h167zM354 580q-30 0 -70.5 16.5t-53.5 16.5q-30 0 -30 -34h-102q0 66 32.5 107t85.5 41q32 0 71.5 -16.5 t51.5 -16.5q29 0 29 34h102q0 -68 -31.5 -108t-84.5 -40z" glyph-name="utilde" horiz-adv-x="563" unicode="ũ"/><glyph d="M352 -12q-138 0 -215 76.5t-77 204.5v431h171v-431q0 -57 32.5 -90t89.5 -33t88.5 33t31.5 91v430h171v-430q0 -126 -78 -204t-214 -78zM211 746v119h281v-119h-281z" glyph-name="Umacron" horiz-adv-x="704" unicode="Ū"/><glyph d="M211 525v-313q0 -36 19 -55.5t50 -19.5q34 0 53 21t19 54v313h167v-525h-163v54q-17 -27 -52 -47t-80 -20q-47 0 -81.5 16t-53 39.5t-29 59t-13.5 65t-3 67.5v291h167zM145 591v119h281v-119h-281z" glyph-name="umacron" horiz-adv-x="563" unicode="ū"/><glyph d="M352 -12q-138 0 -215 76.5t-77 204.5v431h171v-431q0 -57 32.5 -90t89.5 -33t88.5 33t31.5 91v430h171v-430q0 -126 -78 -204t-214 -78zM359 739q-76 0 -119.5 42t-43.5 110h117q0 -57 46 -57q47 0 47 57h117q0 -68 -43.5 -110t-120.5 -42z" glyph-name="Ubreve" horiz-adv-x="704" unicode="Ŭ"/><glyph d="M211 525v-313q0 -36 19 -55.5t50 -19.5q34 0 53 21t19 54v313h167v-525h-163v54q-17 -27 -52 -47t-80 -20q-47 0 -81.5 16t-53 39.5t-29 59t-13.5 65t-3 67.5v291h167zM284 578q-76 0 -119.5 42t-43.5 110h117q0 -57 46 -57q47 0 47 57h117q0 -68 -43.5 -110t-120.5 -42z" glyph-name="ubreve" horiz-adv-x="563" unicode="ŭ"/><glyph d="M352 -12q-138 0 -215 76.5t-77 204.5v431h171v-431q0 -57 32.5 -90t89.5 -33t88.5 33t31.5 91v430h171v-430q0 -126 -78 -204t-214 -78zM353 728q-49 0 -82 29.5t-33 75.5q0 47 33 76.5t82 29.5q50 0 83 -29.5t33 -75.5q0 -47 -33 -76.5t-83 -29.5zM354 796q16 0 26 10.5 t10 27.5q0 16 -10 26.5t-26 10.5t-26 -10t-10 -27t10 -27.5t26 -10.5z" glyph-name="Uring" horiz-adv-x="704" unicode="Ů"/><glyph d="M211 525v-313q0 -36 19 -55.5t50 -19.5q34 0 53 21t19 54v313h167v-525h-163v54q-17 -27 -52 -47t-80 -20q-47 0 -81.5 16t-53 39.5t-29 59t-13.5 65t-3 67.5v291h167zM286 559q-49 0 -82 29.5t-33 75.5q0 47 33 76.5t82 29.5q50 0 83 -29.5t33 -75.5q0 -47 -33 -76.5 t-83 -29.5zM287 627q16 0 26 10.5t10 27.5q0 16 -10 26.5t-26 10.5t-26 -10t-10 -27t10 -27.5t26 -10.5z" glyph-name="uring" horiz-adv-x="563" unicode="ů"/><glyph d="M352 -12q-138 0 -215 76.5t-77 204.5v431h171v-431q0 -57 32.5 -90t89.5 -33t88.5 33t31.5 91v430h171v-430q0 -126 -78 -204t-214 -78zM255 880h157l-100 -145h-123zM448 880h157l-100 -145h-123z" glyph-name="Uhungarumlaut" horiz-adv-x="704" unicode="Ű"/><glyph d="M211 525v-313q0 -36 19 -55.5t50 -19.5q34 0 53 21t19 54v313h167v-525h-163v54q-17 -27 -52 -47t-80 -20q-47 0 -81.5 16t-53 39.5t-29 59t-13.5 65t-3 67.5v291h167zM167 725h157l-100 -145h-123zM360 725h157l-100 -145h-123z" glyph-name="uhungarumlaut" horiz-adv-x="563" unicode="ű"/><glyph d="M644 270q0 -102 -51.5 -173.5t-145.5 -96.5q-47 -21 -47 -55q0 -20 14 -29t31 -9v-110q-21 -8 -67 -8q-48 0 -81 25t-33 74q0 61 59 101q-125 8 -194 83.5t-69 196.5v431h171v-431q0 -57 32.5 -90t89.5 -33t88.5 33t31.5 91v430h171v-430z" glyph-name="Uogonek" horiz-adv-x="704" unicode="Ų"/><glyph d="M414 0h-58v54q-17 -27 -52 -47t-80 -20q-47 0 -81.5 16t-53 39.5t-29 59t-13.5 65t-3 67.5v291h167v-313q0 -36 19 -55.5t50 -19.5q34 0 53 21t19 54v313h167v-525q-47 -21 -47 -55q0 -20 14 -29t31 -9v-110q-21 -8 -67 -8q-48 0 -81 25t-33 74q0 40 24.5 69.5t53.5 42.5 z" glyph-name="uogonek" horiz-adv-x="563" unicode="ų"/><glyph d="M610 0l-113 440l-113 -440h-194l-182 700h183l106 -493l123 493h154l123 -493l106 493h183l-182 -700h-194zM413 880h168l96 -145h-138l-41 65l-42 -65h-139z" glyph-name="Wcircumflex" horiz-adv-x="994" unicode="Ŵ"/><glyph d="M492 0l-75 297l-75 -297h-188l-147 525h182l71 -343l79 343h156l79 -343l71 343h182l-147 -525h-188zM333 725h168l96 -145h-138l-41 65l-42 -65h-139z" glyph-name="wcircumflex" horiz-adv-x="834" unicode="ŵ"/><glyph d="M390 0h-170v316l-214 384h192l107 -229l110 229h189l-214 -384v-316zM221 880h168l96 -145h-138l-41 65l-42 -65h-139z" glyph-name="Ycircumflex" horiz-adv-x="610" unicode="Ŷ"/><glyph d="M549 525l-260 -704h-158l71 196l-196 508h179l93 -302l97 302h174zM196 725h168l96 -145h-138l-41 65l-42 -65h-139z" glyph-name="ycircumflex" horiz-adv-x="556" unicode="ŷ"/><glyph d="M390 0h-170v316l-214 384h192l107 -229l110 229h189l-214 -384v-316zM205 736q-34 0 -55.5 22.5t-21.5 54.5t21.5 54.5t55.5 22.5q33 0 55 -22.5t22 -54.5t-22 -54.5t-55 -22.5zM406 736q-34 0 -55.5 22.5t-21.5 54.5t21.5 54.5t55.5 22.5q33 0 55 -22.5t22 -54.5 t-22 -54.5t-55 -22.5z" glyph-name="Ydieresis" horiz-adv-x="610" unicode="Ÿ"/><glyph d="M574 0h-543v109l310 440h-302v151h532v-108l-313 -441h316v-151zM278 880h173l-100 -145h-139z" glyph-name="Zacute" horiz-adv-x="608" unicode="Ź"/><glyph d="M441 424l-205 -285h207v-139h-416v100l204 286h-199v139h409v-101zM216 725h173l-100 -145h-139z" glyph-name="zacute" horiz-adv-x="471" unicode="ź"/><glyph d="M574 0h-543v109l310 440h-302v151h532v-108l-313 -441h316v-151zM304 727q-35 0 -60.5 25.5t-25.5 60.5q0 36 25.5 61.5t60.5 25.5q36 0 61.5 -25.5t25.5 -61.5q0 -35 -25.5 -60.5t-61.5 -25.5z" glyph-name="Zdotaccent" horiz-adv-x="608" unicode="Ż"/><glyph d="M441 424l-205 -285h207v-139h-416v100l204 286h-199v139h409v-101zM242 565q-35 0 -60.5 25.5t-25.5 60.5q0 36 25.5 61.5t60.5 25.5q36 0 61.5 -25.5t25.5 -61.5q0 -35 -25.5 -60.5t-61.5 -25.5z" glyph-name="zdotaccent" horiz-adv-x="471" unicode="ż"/><glyph d="M574 0h-543v109l310 440h-302v151h532v-108l-313 -441h316v-151zM387 735h-168l-96 145h139l42 -65l41 65h138z" glyph-name="Zcaron" horiz-adv-x="608" unicode="Ž"/><glyph d="M441 424l-205 -285h207v-139h-416v100l204 286h-199v139h409v-101zM325 580h-168l-96 145h139l42 -65l41 65h138z" glyph-name="zcaron" horiz-adv-x="471" unicode="ž"/><glyph d="M99 4l41 305h-55v135h73l11 87q23 182 218 182q36 0 66 -6l-18 -138q-18 3 -30 3q-64 0 -72 -55l-10 -73h77v-135h-95l-42 -319q-24 -182 -218 -182q-45 0 -66 6l18 138q18 -3 30 -3q64 0 72 55z" glyph-name="florin" horiz-adv-x="487" unicode="ƒ"/><glyph d="M448 157h-220l-50 -157h-172l236 682q-19 27 -19 60q0 47 33 76.5t82 29.5q50 0 83 -29.5t33 -75.5q0 -36 -20 -62l236 -681h-172zM323 1017h173l-100 -145h-139zM404 297l-66 222l-66 -222h132zM339 705q16 0 26 10.5t10 27.5q0 16 -10 26.5t-26 10.5t-26 -10t-10 -27 t10 -27.5t26 -10.5z" glyph-name="Aringacute" horiz-adv-x="676" unicode="Ǻ"/><glyph d="M20 163q0 79 55.5 126.5t148.5 47.5q56 0 101 -19v19q0 25 -20.5 41t-59.5 16q-64 0 -132 -33l-62 112q98 65 214 65q127 0 177 -56.5t50 -156.5v-325h-149l-9 29q-42 -42 -119 -42q-82 0 -138.5 47t-56.5 129zM187 169q0 -25 20 -39.5t51 -14.5t50.5 14t19.5 40t-20 41 t-51 15q-30 0 -50 -15.5t-20 -40.5zM272 559q-49 0 -82 29.5t-33 75.5q0 47 33 76.5t82 29.5q50 0 83 -29.5t33 -75.5q0 -47 -33 -76.5t-83 -29.5zM273 627q16 0 26 10.5t10 27.5q0 16 -10 26.5t-26 10.5t-26 -10t-10 -27t10 -27.5t26 -10.5zM273 932h173l-100 -145h-139z" glyph-name="aringacute" horiz-adv-x="533" unicode="ǻ"/><glyph d="M839 0h-381v157h-185l-79 -157h-186l370 700h453v-153h-202v-117h172v-152h-172v-125h210v-153zM335 297h123v244zM524 880h173l-100 -145h-139z" glyph-name="AEacute" horiz-adv-x="881" unicode="Ǽ"/><glyph d="M836 219h-344q3 -36 34.5 -61.5t76.5 -25.5q41 0 69.5 18.5t40.5 37.5l110 -85q-18 -37 -76 -76.5t-147 -39.5q-125 0 -202 75q-58 -75 -183 -75q-82 0 -138.5 47t-56.5 129q0 79 55.5 126.5t148.5 47.5q56 0 101 -19v19q0 25 -20.5 41t-59.5 16q-64 0 -132 -33l-62 112 q98 65 214 65q105 0 162 -49q65 49 152 49q124 0 191 -75.5t67 -210.5q0 -21 -1 -33zM187 169q0 -25 20 -39.5t51 -14.5t50.5 14t19.5 40t-20 41t-51 15q-30 0 -50 -15.5t-20 -40.5zM582 403q-38 0 -60 -23.5t-25 -54.5h170q-2 33 -24.5 55.5t-60.5 22.5zM406 725h173 l-100 -145h-139z" glyph-name="aeacute" horiz-adv-x="856" unicode="ǽ"/><glyph d="M394 -13q-103 0 -186 44l-46 -57l-88 70l45 56q-92 101 -92 251q0 155 102 258.5t265 103.5q98 0 180 -42l45 56l88 -70l-43 -54q97 -102 97 -252q0 -157 -102 -260.5t-265 -103.5zM394 147q83 0 136 57.5t53 146.5q0 62 -30 113l-239 -300q37 -17 80 -17zM394 553 q-83 0 -136 -57.5t-53 -144.5q0 -63 26 -110l237 297q-33 15 -74 15zM378 880h173l-100 -145h-139z" glyph-name="Oslashacute" horiz-adv-x="788" unicode="Ǿ"/><glyph d="M21 261q0 119 81.5 198t203.5 79q72 0 136 -29l37 47l76 -59l-35 -44q74 -77 74 -190q0 -119 -82 -197.5t-206 -78.5q-71 0 -132 28l-40 -51l-75 59l37 46q-75 77 -75 192zM188 261q0 -33 12 -60l144 184q-18 6 -38 6q-52 0 -85 -36t-33 -94zM427 263q0 31 -12 57 l-143 -182q13 -4 34 -4q52 0 86.5 36.5t34.5 92.5zM289 725h173l-100 -145h-139z" glyph-name="oslashacute" horiz-adv-x="616" unicode="ǿ"/><glyph d="M267 713q53 0 95.5 -17t68 -45t40 -51.5t22.5 -48.5l-142 -65q-9 20 -17.5 32.5t-27 24.5t-43.5 12t-40 -13.5t-15 -33.5q0 -26 30 -46.5t73 -39t86 -42.5t73 -68t30 -103q0 -99 -66 -160.5t-179 -61.5q-55 0 -100 18t-72 46.5t-42.5 53.5t-23.5 49l143 71 q15 -33 43 -55.5t62 -22.5q62 0 62 49q0 21 -21.5 39.5t-53.5 32t-70 34t-70 44.5t-53.5 65t-21.5 94q0 94 63 151t167 57zM181 -257q40 28 51 64q-31 7 -48 30.5t-17 51.5q0 35 25.5 59.5t60.5 24.5q39 0 64.5 -27t25.5 -72q0 -56 -30 -108.5t-77 -83.5z" glyph-name="Scommaaccent" horiz-adv-x="529" unicode="Ș"/><glyph d="M216 -13q-69 0 -122 27t-80 63l94 91q52 -46 116 -46q47 0 47 29q0 14 -18 24.5t-44.5 18t-57.5 21t-57.5 31.5t-44.5 51.5t-18 78.5q0 74 57 118t145 44q122 0 188 -90l-108 -85q-41 41 -87 41q-38 0 -38 -26q0 -18 25 -29.5t60.5 -22t71 -26.5t60.5 -51.5t25 -88.5 q0 -79 -61 -126t-153 -47zM151 -257q40 28 51 64q-31 7 -48 30.5t-17 51.5q0 35 25.5 59.5t60.5 24.5q39 0 64.5 -27t25.5 -72q0 -56 -30 -108.5t-77 -83.5z" glyph-name="scommaaccent" horiz-adv-x="444" unicode="ș"/><glyph d="M215 525v-527q0 -190 -220 -190l-37 3v141q13 -2 24 -2q66 0 66 56v519h167z" glyph-name="dotlessj" unicode="ȷ"/><glyph d="M137 725h168l96 -145h-138l-41 65l-42 -65h-139z" glyph-name="circumflex" horiz-adv-x="443" unicode="ˆ"/><glyph d="M305 580h-168l-96 145h139l42 -65l41 65h138z" glyph-name="caron" horiz-adv-x="443" unicode="ˇ"/><glyph d="M220 578q-76 0 -119.5 42t-43.5 110h117q0 -57 46 -57q47 0 47 57h117q0 -68 -43.5 -110t-120.5 -42z" glyph-name="breve" horiz-adv-x="442" unicode="˘"/><glyph d="M221 565q-35 0 -60.5 25.5t-25.5 60.5q0 36 25.5 61.5t60.5 25.5q36 0 61.5 -25.5t25.5 -61.5q0 -35 -25.5 -60.5t-61.5 -25.5z" glyph-name="dotaccent" horiz-adv-x="442" unicode="˙"/><glyph d="M220 559q-49 0 -82 29.5t-33 75.5q0 47 33 76.5t82 29.5q50 0 83 -29.5t33 -75.5q0 -47 -33 -76.5t-83 -29.5zM221 627q16 0 26 10.5t10 27.5q0 16 -10 26.5t-26 10.5t-26 -10t-10 -27t10 -27.5t26 -10.5z" glyph-name="ring" horiz-adv-x="442" unicode="˚"/><glyph d="M208 0h105q-47 -21 -47 -55q0 -20 14 -29t31 -9v-110q-21 -8 -67 -8q-48 0 -81 25t-33 74q0 40 24.5 69.5t53.5 42.5z" glyph-name="ogonek" horiz-adv-x="443" unicode="˛"/><glyph d="M291 580q-30 0 -70.5 16.5t-53.5 16.5q-30 0 -30 -34h-102q0 66 32.5 107t85.5 41q32 0 71.5 -16.5t51.5 -16.5q29 0 29 34h102q0 -68 -31.5 -108t-84.5 -40z" glyph-name="tilde" horiz-adv-x="442" unicode="˜"/><glyph d="M92 725h157l-100 -145h-123zM285 725h157l-100 -145h-123z" glyph-name="hungarumlaut" horiz-adv-x="469" unicode="˝"/><glyph d="M610 0l-113 440l-113 -440h-194l-182 700h183l106 -493l123 493h154l123 -493l106 493h183l-182 -700h-194zM323 880h173l66 -145h-139z" glyph-name="Wgrave" horiz-adv-x="994" unicode="Ẁ"/><glyph d="M492 0l-75 297l-75 -297h-188l-147 525h182l71 -343l79 343h156l79 -343l71 343h182l-147 -525h-188zM248 725h173l66 -145h-139z" glyph-name="wgrave" horiz-adv-x="834" unicode="ẁ"/><glyph d="M610 0l-113 440l-113 -440h-194l-182 700h183l106 -493l123 493h154l123 -493l106 493h183l-182 -700h-194zM479 880h173l-100 -145h-139z" glyph-name="Wacute" horiz-adv-x="994" unicode="Ẃ"/><glyph d="M492 0l-75 297l-75 -297h-188l-147 525h182l71 -343l79 343h156l79 -343l71 343h182l-147 -525h-188zM409 725h173l-100 -145h-139z" glyph-name="wacute" horiz-adv-x="834" unicode="ẃ"/><glyph d="M610 0l-113 440l-113 -440h-194l-182 700h183l106 -493l123 493h154l123 -493l106 493h183l-182 -700h-194zM397 735q-34 0 -55.5 22.5t-21.5 54.5t21.5 54.5t55.5 22.5q33 0 55 -22.5t22 -54.5t-22 -54.5t-55 -22.5zM598 735q-34 0 -55.5 22.5t-21.5 54.5t21.5 54.5 t55.5 22.5q33 0 55 -22.5t22 -54.5t-22 -54.5t-55 -22.5z" glyph-name="Wdieresis" horiz-adv-x="994" unicode="Ẅ"/><glyph d="M492 0l-75 297l-75 -297h-188l-147 525h182l71 -343l79 343h156l79 -343l71 343h182l-147 -525h-188zM317 576q-34 0 -55.5 22.5t-21.5 54.5t21.5 54.5t55.5 22.5q33 0 55 -22.5t22 -54.5t-22 -54.5t-55 -22.5zM518 576q-34 0 -55.5 22.5t-21.5 54.5t21.5 54.5t55.5 22.5 q33 0 55 -22.5t22 -54.5t-22 -54.5t-55 -22.5z" glyph-name="wdieresis" horiz-adv-x="834" unicode="ẅ"/><glyph d="M390 0h-170v316l-214 384h192l107 -229l110 229h189l-214 -384v-316zM148 880h173l66 -145h-139z" glyph-name="Ygrave" horiz-adv-x="610" unicode="Ỳ"/><glyph d="M549 525l-260 -704h-158l71 196l-196 508h179l93 -302l97 302h174zM121 725h173l66 -145h-139z" glyph-name="ygrave" horiz-adv-x="556" unicode="ỳ"/><glyph d="M625 243h-578v136h578v-136z" glyph-name="endash" horiz-adv-x="672" unicode="–"/><glyph d="M897 243h-850v136h850v-136z" glyph-name="emdash" horiz-adv-x="945" unicode="—"/><glyph d="M215 668q-23 -13 -45 -37t-26 -49q37 -9 58 -36.5t21 -60.5q0 -41 -29 -70.5t-70 -29.5q-43 0 -72.5 28.5t-29.5 79.5q0 75 34.5 141t93.5 106z" glyph-name="quoteleft" horiz-adv-x="245" unicode="‘"/><glyph d="M30 457q23 13 45 37t26 49q-37 9 -58 36.5t-21 60.5q0 41 29 70.5t70 29.5q43 0 72.5 -28.5t29.5 -79.5q0 -75 -34.5 -141t-93.5 -106z" glyph-name="quoteright" horiz-adv-x="245" unicode="’"/><glyph d="M39 -97q23 13 45 37t26 49q-37 9 -58 36.5t-21 60.5q0 41 29 70.5t70 29.5q43 0 72.5 -28.5t29.5 -79.5q0 -75 -34.5 -141t-93.5 -106z" glyph-name="quotesinglbase" horiz-adv-x="261" unicode="‚"/><glyph d="M215 668q-23 -13 -45 -37t-26 -49q37 -9 58 -36.5t21 -60.5q0 -41 -29 -70.5t-70 -29.5q-43 0 -72.5 28.5t-29.5 79.5q0 75 34.5 141t93.5 106zM441 668q-23 -13 -45 -37t-26 -49q37 -9 58 -36.5t21 -60.5q0 -41 -29 -70.5t-70 -29.5q-43 0 -72.5 28.5t-29.5 79.5 q0 75 34.5 141t93.5 106z" glyph-name="quotedblleft" horiz-adv-x="471" unicode="“"/><glyph d="M256 457q23 13 45 37t26 49q-37 9 -58 36.5t-21 60.5q0 41 29 70.5t70 29.5q43 0 72.5 -28.5t29.5 -79.5q0 -75 -34.5 -141t-93.5 -106zM30 457q23 13 45 37t26 49q-37 9 -58 36.5t-21 60.5q0 41 29 70.5t70 29.5q43 0 72.5 -28.5t29.5 -79.5q0 -75 -34.5 -141 t-93.5 -106z" glyph-name="quotedblright" horiz-adv-x="471" unicode="”"/><glyph d="M256 -97q23 13 45 37t26 49q-37 9 -58 36.5t-21 60.5q0 41 29 70.5t70 29.5q43 0 72.5 -28.5t29.5 -79.5q0 -75 -34.5 -141t-93.5 -106zM30 -97q23 13 45 37t26 49q-37 9 -58 36.5t-21 60.5q0 41 29 70.5t70 29.5q43 0 72.5 -28.5t29.5 -79.5q0 -75 -34.5 -141 t-93.5 -106z" glyph-name="quotedblbase" horiz-adv-x="471" unicode="„"/><glyph d="M425 396h-119v-396h-164v396h-118v145h118v159h164v-159h119v-145z" glyph-name="dagger" horiz-adv-x="448" unicode="†"/><glyph d="M24 303h118v93h-118v145h118v159h164v-159h119v-145h-119v-93h119v-144h-119v-159h-164v159h-118v144z" glyph-name="daggerdbl" horiz-adv-x="449" unicode="‡"/><glyph d="M203 138q-74 0 -123 50t-49 122t49 122t123 50t123 -50t49 -122t-49 -122t-123 -50z" glyph-name="bullet" horiz-adv-x="406" unicode="•"/><glyph d="M758 700l-528 -700h-160l528 700h160zM572 160q0 -24 15.5 -40t38.5 -16q25 0 40 16t15 40q0 23 -15.5 38.5t-39.5 15.5t-39 -16t-15 -38zM448 159q0 73 50.5 123t126.5 50q78 0 129 -50t51 -123t-51 -122.5t-128 -49.5q-78 0 -128 49t-50 123zM146 541q0 -24 15.5 -40 t38.5 -16q25 0 40 16t15 40q0 23 -15.5 38.5t-39.5 15.5t-39 -16t-15 -38zM22 540q0 73 50.5 123t126.5 50q78 0 129 -50t51 -123t-51 -122.5t-128 -49.5q-78 0 -128 49t-50 123zM972 160q0 -24 15.5 -40t38.5 -16q25 0 40 16t15 40q0 23 -15.5 38.5t-39.5 15.5t-39 -16 t-15 -38zM848 159q0 73 50.5 123t126.5 50q78 0 129 -50t51 -123t-51 -122.5t-128 -49.5q-78 0 -128 49t-50 123z" glyph-name="perthousand" horiz-adv-x="1227" unicode="‰"/><glyph d="M293 106h-147l-121 190l121 190h147l-122 -190z" glyph-name="guilsinglleft" horiz-adv-x="318" unicode="‹"/><glyph d="M172 106h-147l122 190l-122 190h147l121 -190z" glyph-name="guilsinglright" horiz-adv-x="318" unicode="›"/><glyph d="M495 741l-368 -782h-141l367 782h142z" glyph-name="fraction" horiz-adv-x="480" unicode="⁄"/><glyph d="M23 483h69q35 101 123.5 165.5t205.5 64.5q109 0 183 -45l-70 -140q-51 29 -112 29q-46 0 -84.5 -19.5t-58.5 -54.5h193l-10 -107h-213q-1 -8 -1 -25q0 -12 2 -22h207l-10 -107h-162q45 -74 148 -74q65 0 113 31l64 -139q-22 -21 -70 -37t-107 -16q-127 0 -216.5 64 t-125.5 171h-68v107h48q-1 7 -1 21q0 17 1 26h-48v107z" glyph-name="Euro" horiz-adv-x="654" unicode="€"/><glyph d="M842 527q0 -30 20 -51t54 -21q33 0 53 21t20 51q0 31 -19.5 53t-53.5 22t-54 -22t-20 -53zM725 527q0 75 53.5 130.5t137.5 55.5t137.5 -55.5t53.5 -130.5t-53.5 -129t-137.5 -54t-137.5 54t-53.5 129zM488 0l-260 429v-429h-168v700h174l256 -434v434h168v-700h-170z M744 170v129h342v-129h-342z" glyph-name="numero" horiz-adv-x="1153" unicode="№"/><glyph d="M315 700v-99h-84v-262h-112v262h-85v99h281zM607 379h-100l-53 145v-185h-108v361h143l67 -193l69 193h143v-361h-108v185z" glyph-name="trademark" horiz-adv-x="802" unicode="™"/><glyph d="M35 246v132h481v-132h-481z" glyph-name="minus" horiz-adv-x="551" unicode="−"/><glyph d="M87 -257q40 28 51 64q-31 7 -48 30.5t-17 51.5q0 35 25.5 59.5t60.5 24.5q39 0 64.5 -27t25.5 -72q0 -56 -30 -108.5t-77 -83.5z" glyph-name="commaaccent" horiz-adv-x="323" unicode=""/><glyph glyph-name="CR" horiz-adv-x="196"/><glyph d="M47 278v150h290v-150h-290z" glyph-name="hyphen.caps" horiz-adv-x="385"/><glyph d="M625 287h-578v136h578v-136z" glyph-name="endash.caps" horiz-adv-x="672"/><glyph d="M897 287h-850v136h850v-136z" glyph-name="emdash.caps" horiz-adv-x="945"/><glyph d="M293 167h-147l-121 190l121 190h147l-122 -190zM496 167h-146l-122 190l122 190h146l-122 -190z" glyph-name="guillemotleft.caps" horiz-adv-x="521"/><glyph d="M375 167h-147l122 190l-122 190h147l121 -190zM171 167h-146l122 190l-122 190h146l122 -190z" glyph-name="guillemotright.caps" horiz-adv-x="521"/><glyph d="M293 167h-147l-121 190l121 190h147l-122 -190z" glyph-name="guilsinglleft.caps" horiz-adv-x="318"/><glyph d="M171 167h-146l122 190l-122 190h146l122 -190z" glyph-name="guilsinglright.caps" horiz-adv-x="318"/><glyph d="M35 79v532q0 111 62.5 171t190.5 60v-144q-88 0 -88 -84v-538q0 -84 88 -84v-144q-253 0 -253 231z" glyph-name="parenleft.caps" horiz-adv-x="350"/><glyph d="M315 611v-532q0 -231 -253 -231v144q88 0 88 84v538q0 84 -88 84v144q128 0 190.5 -60t62.5 -171z" glyph-name="parenright.caps" horiz-adv-x="350"/><glyph d="M35 -152v994h253v-144h-88v-706h88v-144h-253z" glyph-name="bracketleft.caps" horiz-adv-x="350"/><glyph d="M315 842v-994h-253v144h88v706h-88v144h253z" glyph-name="bracketright.caps" horiz-adv-x="350"/><glyph d="M176 345q25 -5 55.5 -38t30.5 -92v-139q0 -84 88 -84v-144q-128 0 -190.5 60t-62.5 171v104q0 47 -22 65t-50 18v158q28 0 50 18t22 65v104q0 111 62.5 171t190.5 60v-144q-88 0 -88 -84v-139q0 -59 -30.5 -92t-55.5 -38z" glyph-name="braceleft.caps" horiz-adv-x="412"/><glyph d="M227 871v-1095h-157v1095h157z" glyph-name="bar.caps" horiz-adv-x="297"/><glyph d="M236 345q-25 5 -55.5 38t-30.5 92v139q0 84 -88 84v144q128 0 190.5 -60t62.5 -171v-104q0 -47 22 -65t50 -18v-158q-28 0 -50 -18t-22 -65v-104q0 -111 -62.5 -171t-190.5 -60v144q88 0 88 84v139q0 59 30.5 92t55.5 38z" glyph-name="braceright.caps" horiz-adv-x="412"/><glyph d="M455 777l-299 -858h-145l299 858h145z" glyph-name="slash.caps" horiz-adv-x="466"/><glyph d="M310 -81l-299 858h145l299 -858h-145z" glyph-name="backslash.caps" horiz-adv-x="466"/><glyph d="M154 713q41 0 70.5 -29t29.5 -70t-29.5 -70.5t-70.5 -29.5t-70 29.5t-29 70.5t29 70t70 29zM230 489l13 -489h-177l13 489h151z" glyph-name="exclamdown.caps" horiz-adv-x="309"/><glyph d="M185 450v39h162v-50q0 -37 -16 -69t-38.5 -53t-44.5 -40t-38 -40t-16 -42q0 -25 17 -42.5t49 -17.5q17 0 30 5.5t22 16t13.5 17t9.5 18.5l131 -59q-8 -25 -22.5 -47.5t-39 -46.5t-65 -38t-90.5 -14q-99 0 -162 54.5t-63 142.5q0 40 16.5 73.5t40 56.5t47.5 43.5t40.5 44 t16.5 48.5zM267 713q41 0 70 -29t29 -70t-29 -70.5t-70 -29.5t-70.5 29.5t-29.5 70.5t29.5 70t70.5 29z" glyph-name="questiondown.caps" horiz-adv-x="490"/><glyph d="M130 253q-41 0 -70 29t-29 70t29 70.5t70 29.5t70.5 -29.5t29.5 -70.5t-29.5 -70t-70.5 -29z" glyph-name="periodcentered.caps" horiz-adv-x="261"/><glyph d="M203 182q-74 0 -123 50t-49 122t49 122t123 50t123 -50t49 -122t-49 -122t-123 -50z" glyph-name="bullet.caps" horiz-adv-x="406"/><glyph d="M550 350q0 -185 -59.5 -274t-189.5 -89t-189.5 89t-59.5 274t59.5 274t189.5 89t189.5 -89t59.5 -274zM225 350q0 -111 15.5 -157t60.5 -46t60.5 46t15.5 157t-15.5 157t-60.5 46t-60.5 -46t-15.5 -157z" glyph-name="zero.tab" horiz-adv-x="602"/><glyph d="M545 0h-473v149h172v384l-126 -58l-61 130l216 95h140v-551h132v-149z" glyph-name="one.tab" horiz-adv-x="602"/><glyph d="M543 0h-479v61q0 56 30.5 111t74.5 98t88 81t74.5 74.5t30.5 64.5q0 31 -19 48.5t-52 17.5q-62 0 -84 -69l-148 44q8 32 23.5 61t43 58t72 46t100.5 17q105 0 171.5 -58t66.5 -158q0 -50 -24.5 -95t-61 -78.5t-73.5 -62.5t-68.5 -58t-40.5 -54h275v-149z" glyph-name="two.tab" horiz-adv-x="602"/><glyph d="M297 -13q-56 0 -100.5 17t-72 46t-43 58t-23.5 61l148 44q22 -69 87 -69q35 0 56 20.5t21 54.5q0 31 -21.5 51.5t-60.5 20.5h-97v131l125 129h-229v149h425v-148l-127 -121q158 -32 158 -205q0 -106 -69.5 -172.5t-176.5 -66.5z" glyph-name="three.tab" horiz-adv-x="602"/><glyph d="M576 156h-78v-156h-167v156h-306v121l272 423h201v-400h78v-144zM331 517l-132 -217h132v217z" glyph-name="four.tab" horiz-adv-x="602"/><glyph d="M283 320q-44 0 -68 -32l-140 22l14 390h414v-149h-262l-5 -105q38 18 90 18q89 0 155.5 -60t66.5 -158q0 -113 -70.5 -186t-177.5 -73t-168.5 56t-78.5 126l148 44q18 -69 90 -69q36 0 60 24.5t24 63.5q0 34 -23 61t-69 27z" glyph-name="five.tab" horiz-adv-x="602"/><glyph d="M519 669l-65 -139q-39 23 -91 23q-38 0 -65.5 -12.5t-40 -32t-17.5 -35.5t-5 -29q40 29 109 29q91 0 148.5 -61t57.5 -174q0 -110 -67.5 -180.5t-175.5 -70.5q-141 0 -198 83.5t-57 240.5q0 64 8 119t29.5 108.5t54 91t86 60.5t121.5 23q96 0 168 -44zM304 321 q-42 0 -79 -35q0 -33 2 -53t10 -42.5t25.5 -33t45.5 -10.5q36 0 55 23t19 62q0 40 -20.5 64.5t-57.5 24.5z" glyph-name="six.tab" horiz-adv-x="602"/><glyph d="M545 580l-230 -580h-185l225 551h-298v149h488v-120z" glyph-name="seven.tab" horiz-adv-x="602"/><glyph d="M300 -13q-117 0 -185 60t-68 164q0 54 24.5 96t60.5 64q-28 21 -48 56.5t-20 81.5q0 89 64.5 146.5t172.5 57.5t172.5 -57.5t64.5 -146.5t-69 -138q38 -23 62 -64t24 -96q0 -103 -69.5 -163.5t-185.5 -60.5zM301 287q-37 0 -58.5 -21t-21.5 -52q0 -32 21 -52t59 -20 q39 0 59.5 19.5t20.5 52.5q0 31 -21 52t-59 21zM301 560q-33 0 -50.5 -17.5t-17.5 -44.5q0 -30 18.5 -46.5t49.5 -16.5t49.5 16.5t18.5 46.5q0 27 -18 44.5t-50 17.5z" glyph-name="eight.tab" horiz-adv-x="602"/><glyph d="M83 31l65 139q39 -23 91 -23q38 0 65.5 12.5t40 32t17.5 35.5t5 29q-40 -29 -109 -29q-91 0 -148.5 61t-57.5 174q0 110 67.5 180.5t175.5 70.5q141 0 198 -83.5t57 -240.5q0 -64 -8 -119t-29.5 -108.5t-54 -91t-86 -60.5t-121.5 -23q-96 0 -168 44zM298 379q42 0 79 35 q0 33 -2 53t-10 42.5t-25.5 33t-45.5 10.5q-36 0 -55 -23t-19 -62q0 -40 20.5 -64.5t57.5 -24.5z" glyph-name="nine.tab" horiz-adv-x="602"/></font>
</defs>
</svg>
