<svg xmlns="http://www.w3.org/2000/svg" xmlns:xlink="http://www.w3.org/1999/xlink" id="Layer_1" width="115" height="88" x="0" y="0" enable-background="new 0 0 115 88" version="1.1" viewBox="0 0 115 88" xml:space="preserve"><g><defs><path id="SVGID_1_" d="M34,15.167c0,0-7.333,5.833-9.333,6C22.667,21.333,14,27,14,27l-5.667-0.166L2,19.667l8.667,64.752h100.581 l-70.51-70.51L34,15.167z"/></defs><clipPath id="SVGID_2_"><use overflow="visible" xlink:href="#SVGID_1_"/></clipPath><defs><filter id="Adobe_OpacityMaskFilter" width="109.248" height="70.51" x="2" y="13.909" filterUnits="userSpaceOnUse"><feColorMatrix type="matrix" values="1 0 0 0 0 0 1 0 0 0 0 0 1 0 0 0 0 0 1 0"/></filter></defs><mask id="SVGID_3_" width="109.248" height="70.51" x="2" y="13.909" maskUnits="userSpaceOnUse"><g filter="url(#Adobe_OpacityMaskFilter)"><linearGradient id="SVGID_4_" x1="-605.097" x2="-604.098" y1="1884.141" y2="1884.141" gradientTransform="matrix(0 -77.1078 -77.1078 0 145338.4688 -46576.375)" gradientUnits="userSpaceOnUse"><stop offset="0" style="stop-color:#000"/><stop offset="1" style="stop-color:#333"/></linearGradient><rect width="109.248" height="70.51" x="2" y="13.909" fill="url(#SVGID_4_)" clip-path="url(#SVGID_2_)"/></g></mask><linearGradient id="SVGID_5_" x1="-605.097" x2="-604.098" y1="1884.141" y2="1884.141" gradientTransform="matrix(0 -77.1078 -77.1078 0 145338.4688 -46576.375)" gradientUnits="userSpaceOnUse"><stop offset="0" style="stop-color:#fff"/><stop offset="1" style="stop-color:#000"/></linearGradient><rect width="109.248" height="70.51" x="2" y="13.909" fill="url(#SVGID_5_)" clip-path="url(#SVGID_2_)" mask="url(#SVGID_3_)"/></g><g><defs><path id="SVGID_6_" d="M18.692,15.471h3.947v-3.866h-3.947V15.471z M4.164,15.47h3.947v-3.866H4.164V15.47z M8.111,11.604h0.002 H8.111z M9.008,15.47h3.947v-3.866H9.008V15.47z M13.851,15.47h3.946v-3.866h-3.946V15.47z M23.535,15.47h3.946v-3.866h-3.946 V15.47z M7.588,22.131c0-1.129,0.936-2.046,2.087-2.046c1.151,0,2.089,0.917,2.089,2.046c0,1.127-0.937,2.046-2.089,2.046 C8.526,24.177,7.588,23.258,7.588,22.131 M32.206,9.347c-0.835,0.948-1.084,2.522-0.97,3.731c0.084,0.89,0.369,1.791,0.928,2.506 c-0.425,0.25-0.908,0.447-1.338,0.591c-0.874,0.289-1.825,0.45-2.75,0.45H2.111l-0.056,0.589c-0.184,1.955,0.089,3.911,0.915,5.7 l0.354,0.711l0.041,0.066c2.443,4.063,6.729,5.774,11.402,5.774c9.046,0,16.507-3.957,19.933-12.318 c2.289,0.115,4.631-0.547,5.752-2.689l0.286-0.549l-0.542-0.305c-1.327-0.749-3.091-0.853-4.594-0.418v0.001 c-0.186-1.567-1.235-2.939-2.484-3.922l-0.495-0.389L32.206,9.347z M9.008,10.512h3.947V6.645H9.008V10.512z M13.851,10.512h3.946 V6.645h-3.946V10.512z M18.692,10.512h3.947V6.645h-3.947V10.512z M18.692,5.554h3.947V1.687h-3.947V5.554z"/></defs><clipPath id="SVGID_7_"><use overflow="visible" xlink:href="#SVGID_6_"/></clipPath><rect width="48.738" height="37.778" x="-3" y="-3.313" fill="#FFF" clip-path="url(#SVGID_7_)"/></g></svg>