<svg xmlns="http://www.w3.org/2000/svg" width="49" height="56" fill="none" viewBox="0 0 49 56"><path fill="#2854A1" d="M0 45H49V55C49 55.5523 48.5523 56 48 56H7C3.13401 56 0 52.866 0 49V45Z"/><path fill="#2854A1" d="M0 6C0 2.68629 2.68629 0 6 0H46C47.6569 0 49 1.34315 49 3V45H0V6Z"/><path fill="#71CFFF" d="M2.13043 49C2.13043 46.2386 4.36901 44 7.13043 44H47.9348V54H7.13043C4.36901 54 2.13043 51.7614 2.13043 49Z"/><path fill="#71CFFF" fill-rule="evenodd" d="M39.413 0H29.8261V6L34.6196 4.2L39.413 6V0Z" clip-rule="evenodd"/><rect width="29.826" height="2" x="9.587" y="14" fill="#fff" rx="1"/><rect width="23.435" height="2" x="12.783" y="18" fill="#fff" rx="1"/></svg>